<svg width="862" height="183" viewBox="0 0 862 183" fill="none" xmlns="http://www.w3.org/2000/svg">
<path fill-rule="evenodd" clip-rule="evenodd" d="M66.2054 69.8443C66.5706 69.3424 67.1993 69.1078 67.7965 69.2766C90.9741 75.8281 117.449 102.386 117.449 127.321C117.449 157.319 93.088 181.683 63.0834 181.683C33.0787 181.683 8.71973 157.319 8.71973 127.321C8.71973 116.457 11.9133 106.333 17.4108 97.8381C17.4269 97.8133 17.4098 97.7805 17.3803 97.7793C17.3523 97.7783 17.3255 97.7663 17.3385 97.7414C18.028 96.4295 29.9088 73.6119 33.1595 67.3566C33.59 66.5282 34.4239 65.0623 34.9175 64.2697C37.1414 60.6989 42.6815 51.8074 44.6744 48.6479C45.0848 47.9971 45.7239 47.0223 46.1487 46.3807C49.4354 41.4171 52.8408 36.5342 56.3494 31.7543C57.0406 30.8147 57.7432 29.8605 58.4573 28.898C66.7747 17.6998 76.8356 5.47041 92.1942 1.39342C115.532 -4.79968 137.404 10.5834 143.465 29.1153C152.557 56.9089 159.317 164.864 160.181 179.18C160.233 180.049 159.534 180.741 158.663 180.729L140.148 180.476C139.36 180.466 138.715 179.862 138.67 179.075C137.91 165.895 131.708 62.3458 123.024 35.8003C120.035 26.661 109.221 19.1263 97.7108 22.1803C86.0714 25.2687 79.7802 36.1842 73.6835 44.4852C70.496 48.825 67.4004 53.2567 64.4078 57.76C63.9512 58.4472 63.2464 59.575 62.8175 60.2798C60.7037 63.7528 54.9539 73.1174 54.9539 73.1174C53.9886 74.5241 53.0345 75.94 52.0907 77.3634C51.6593 78.014 51.0053 79.0129 50.5891 79.6734C48.2881 83.3254 41.4157 94.3667 41.4157 94.3667C41.4157 94.3667 26.5653 116.68 26.5653 127.321C26.5653 147.475 42.9288 163.839 63.0834 163.839C83.2379 163.839 99.6014 147.475 99.6014 127.321C99.6014 108.895 78.1506 86.2502 59.7149 83.1146C58.5846 82.9223 57.9559 81.6253 58.5943 80.6729C60.9705 77.1281 63.421 73.6376 65.9373 70.2117C66.0265 70.0897 66.1159 69.9672 66.2054 69.8443Z" fill="#FF9E60"/>
<path fill-rule="evenodd" clip-rule="evenodd" d="M24.8282 65.066C24.4761 65.5892 23.8348 65.8354 23.2184 65.7021C21.7222 65.3785 19.8434 65.0422 18.5913 64.8239C15.4546 64.2762 10.5912 64.5097 8.53409 64.6448C7.94141 64.6838 7.38016 64.3842 7.09515 63.8631C5.71726 61.3438 1.68721 53.9457 0.400089 51.2532C0.126279 50.6804 0.397896 50.1379 1.00455 49.9508C6.99083 48.104 14.6798 48.0746 22.5508 49.4478C25.5793 49.9754 28.6383 50.6971 31.6016 51.53C32.5739 51.8032 32.9825 52.9477 32.4187 53.7856L24.8282 65.066Z" fill="#FF9E60"/>
<path d="M221.588 32C237.633 32 251.146 37.8532 262.129 49.3871H262.146C271.993 60.0602 276.899 72.2831 276.899 86.3992C276.899 102.065 271.046 115.319 259.323 126.164H259.272C253.952 130.812 248.048 134.427 241.592 137.009L276.263 177.636C276.934 178.325 277.089 179.53 276.658 180.391C276.228 181.424 275.298 181.94 274.266 181.94H255.261C254.486 181.94 253.746 181.597 253.246 181.08L218.714 140.624H194.269V179.357C194.269 180.734 193.081 181.94 191.635 181.94H177.174C175.711 181.94 174.541 180.734 174.541 179.357V34.7549C174.541 33.2056 175.711 32 177.174 32H221.588ZM194.269 51.7974V121.001H207.541H223.396C234.654 120.485 243.606 115.663 250.251 106.884C254.865 100.686 257.171 93.9737 257.171 86.3992C257.171 75.5539 252.885 66.6014 244.312 59.7155C237.633 54.3789 230.058 51.7974 221.588 51.7974H194.269Z" fill="#FF9E60"/>
<path d="M294.923 32H309.383C310.829 32 312.017 33.2056 312.017 34.7549V179.357C312.017 180.734 310.829 181.94 309.383 181.94H294.923C293.46 181.94 292.289 180.734 292.289 179.357V34.7549C292.289 33.2056 293.46 32 294.923 32Z" fill="#FF9E60"/>
<path d="M383.958 32H384.784C384.801 32 384.819 32.1723 384.836 32.1723C390.895 32.1723 396.731 33.206 402.343 35.0996C402.36 35.0996 402.36 35.0996 402.36 35.0996C416.804 40.0919 427.563 49.3877 434.638 62.9874C438.838 71.2505 440.921 80.028 440.921 88.9797V179.357C440.921 180.734 439.733 181.94 438.287 181.94H423.827C422.364 181.94 421.193 180.734 421.193 179.357C421.193 179.357 421.193 168.684 421.176 168.684C411.088 177.636 399.107 182.112 385.249 182.457C385.232 182.457 385.214 182.457 385.197 182.457H381.479C381.427 182.457 381.376 182.457 381.341 182.457C365.297 181.596 352.007 174.882 341.472 162.659C341.455 162.659 341.455 162.659 341.437 162.659C331.642 150.953 327.029 137.699 327.614 122.894C328.337 106.54 334.896 92.9409 347.325 82.2678C357.86 73.144 369.98 68.495 383.7 68.3228C383.717 68.3228 383.734 68.3228 383.751 68.3228C384.801 68.3228 385.8 68.323 386.695 68.4952C399.709 69.1838 410.968 73.4876 420.453 81.5785C418.852 73.1433 414.6 66.0856 407.68 60.4047C404.065 57.4782 400.14 55.2401 395.888 53.6907C384.853 50.0756 374.404 51.2803 364.505 57.6498C360.77 60.0599 357.55 62.9865 354.848 66.4295C353.952 67.6345 352.334 67.8072 351.181 66.9464L339.613 58.3391C338.442 57.4783 338.201 55.7553 339.079 54.5502C348.616 41.9835 361.252 34.5827 377.003 32.5169C377.02 32.5169 377.02 32.5169 377.037 32.5169C379.482 32.1727 381.789 32 383.958 32ZM421.193 126.853C421.572 114.975 417.406 105.163 408.644 97.4169C402.085 91.736 394.442 88.6367 385.697 88.1202C385.559 88.1202 385.421 88.1202 385.301 88.1202C384.784 87.9481 384.268 87.9479 383.769 87.9479C372.338 88.1201 363.042 92.5964 355.846 101.376C350.561 108.09 347.721 115.491 347.342 123.754C346.826 135.46 350.871 145.101 359.496 153.02C366.054 158.873 373.698 162.143 382.46 162.659C393.994 163.176 403.617 159.217 411.329 150.782C417.234 144.068 420.522 136.322 421.193 127.37V126.853Z" fill="#FF9E60"/>
<path d="M462.663 32H477.124C478.57 32 479.758 33.2056 479.758 34.7549V43.8772C489.639 36.1305 501.138 32.1721 514.273 32C514.29 32 514.29 32 514.307 32C530.197 32 543.572 37.6805 554.418 48.8701C554.418 48.8701 554.418 48.8701 554.435 48.8701C563.869 58.6825 568.585 70.2166 568.585 83.4719V179.357C568.585 180.734 567.398 181.94 565.952 181.94H551.491C550.028 181.94 548.857 180.734 548.857 179.357V83.4719C548.857 73.4874 544.64 65.3958 536.273 59.1985C529.852 54.2063 522.519 51.7974 514.307 51.7974C503.014 51.7974 493.908 55.9284 486.988 64.1915C482.168 69.8723 479.758 76.2417 479.758 83.4719V179.357C479.758 180.734 478.57 181.94 477.124 181.94H462.663C461.2 181.94 460.029 180.734 460.029 179.357V34.7549C460.029 33.2056 461.2 32 462.663 32Z" fill="#FF9E60"/>
<path d="M590.741 32H605.201C606.647 32 607.835 33.2056 607.835 34.7549V43.8772C617.716 36.1305 629.216 32.1721 642.351 32C642.368 32 642.368 32 642.385 32C658.274 32 671.65 37.6805 682.495 48.8701C682.495 48.8701 682.495 48.8701 682.513 48.8701C691.946 58.6825 696.663 70.2166 696.663 83.4719V179.357C696.663 180.734 695.475 181.94 694.029 181.94H679.569C678.106 181.94 676.935 180.734 676.935 179.357V83.4719C676.935 73.4874 672.717 65.3958 664.351 59.1985C657.93 54.2063 650.596 51.7974 642.385 51.7974C631.092 51.7974 621.986 55.9284 615.065 64.1915C610.245 69.8723 607.835 76.2417 607.835 83.4719V179.357C607.835 180.734 606.647 181.94 605.201 181.94H590.741C589.278 181.94 588.107 180.734 588.107 179.357V34.7549C588.107 33.2056 589.278 32 590.741 32Z" fill="#FF9E60"/>
<path d="M861.305 112.736V113.081C861.305 115.491 858.671 115.663 858.671 115.663H732.556C734.639 129.435 741.077 140.797 751.906 149.748C755.194 152.503 758.671 154.913 762.338 156.807H762.355C776.54 164.037 791.052 164.898 805.891 159.39C816.926 155.086 825.74 148.2 832.316 138.388C833.125 137.183 834.76 136.838 835.965 137.699L847.947 145.789C849.152 146.65 849.479 148.199 848.67 149.404C837.962 165.413 823.192 175.743 804.342 180.219C786.645 184.522 769.654 182.629 753.369 174.539L753.352 174.366C736.653 165.931 724.741 152.847 717.614 135.288H717.597C710.745 117.902 710.332 100.342 716.323 82.6103C722.606 64.707 734.02 50.9351 750.58 41.6392C761.993 35.2697 774.078 32 786.783 32H788.229L788.297 32.1723C792.997 32.1723 797.542 32.688 801.949 33.5487H801.983C820.971 37.5081 836.12 47.4923 847.396 63.3299C857.931 78.1346 862.562 94.6606 861.305 112.736ZM786.576 51.7974C771.479 51.7974 758.533 57.3052 747.774 68.1505C741.99 74.1757 737.721 81.2332 734.949 89.152C734.226 91.3899 733.624 93.6281 733.142 95.866H840.648C837.962 82.4385 831.111 71.5947 820.093 62.9874C813.397 57.9951 806.029 54.723 798.007 53.0015C794.202 52.3129 790.381 51.7974 786.576 51.7974Z" fill="#FF9E60"/>
</svg>
