<?xml version="1.0" encoding="UTF-8"?>
<svg xmlns="http://www.w3.org/2000/svg" xmlns:xlink="http://www.w3.org/1999/xlink" width="292.36pt" height="145.64pt" viewBox="0 0 292.36 145.64">
<defs>
<clipPath id="clip-0">
<path clip-rule="nonzero" d="M 0.0429688 100 L 15 100 L 15 114 L 0.0429688 114 Z M 0.0429688 100 "/>
</clipPath>
<clipPath id="clip-1">
<path clip-rule="nonzero" d="M 0.0429688 86 L 15 86 L 15 100 L 0.0429688 100 Z M 0.0429688 86 "/>
</clipPath>
<clipPath id="clip-2">
<path clip-rule="nonzero" d="M 0.0429688 80 L 15 80 L 15 86 L 0.0429688 86 Z M 0.0429688 80 "/>
</clipPath>
<clipPath id="clip-3">
<path clip-rule="nonzero" d="M 0.0429688 66 L 15 66 L 15 80 L 0.0429688 80 Z M 0.0429688 66 "/>
</clipPath>
<clipPath id="clip-4">
<path clip-rule="nonzero" d="M 0.0429688 56 L 15 56 L 15 66 L 0.0429688 66 Z M 0.0429688 56 "/>
</clipPath>
<clipPath id="clip-5">
<path clip-rule="nonzero" d="M 0.0429688 43 L 15 43 L 15 56 L 0.0429688 56 Z M 0.0429688 43 "/>
</clipPath>
<clipPath id="clip-6">
<path clip-rule="nonzero" d="M 0.0429688 34 L 15 34 L 15 43 L 0.0429688 43 Z M 0.0429688 34 "/>
</clipPath>
<clipPath id="clip-7">
<path clip-rule="nonzero" d="M 0.0429688 27 L 15 27 L 15 33 L 0.0429688 33 Z M 0.0429688 27 "/>
</clipPath>
<clipPath id="clip-8">
<path clip-rule="nonzero" d="M 0.0429688 15 L 15 15 L 15 28 L 0.0429688 28 Z M 0.0429688 15 "/>
</clipPath>
<clipPath id="clip-9">
<path clip-rule="nonzero" d="M 0.0429688 2 L 15 2 L 15 16 L 0.0429688 16 Z M 0.0429688 2 "/>
</clipPath>
<clipPath id="clip-10">
<path clip-rule="nonzero" d="M 0.0429688 0 L 6 0 L 6 3 L 0.0429688 3 Z M 0.0429688 0 "/>
</clipPath>
<clipPath id="clip-11">
<path clip-rule="nonzero" d="M 154 91 L 291.679688 91 L 291.679688 112 L 154 112 Z M 154 91 "/>
</clipPath>
<clipPath id="clip-12">
<path clip-rule="nonzero" d="M 154 125 L 248 125 L 248 145.28125 L 154 145.28125 Z M 154 125 "/>
</clipPath>
</defs>
<g clip-path="url(#clip-0)">
<path fill-rule="nonzero" fill="#E5E7EB" fill-opacity="1" d="M 1.410156 113.351562 L 0.859375 113.351562 L 0.859375 108.316406 L 1.410156 108.316406 L 1.410156 108.460938 C 1.410156 109.074219 1.527344 109.476562 1.753906 109.671875 C 1.976562 109.867188 2.449219 109.960938 3.175781 109.960938 L 9.296875 109.960938 C 11.167969 109.960938 12.476562 109.632812 13.222656 108.976562 C 13.96875 108.320312 14.34375 107.421875 14.34375 106.28125 C 14.34375 105.25 13.988281 104.449219 13.273438 103.875 C 12.558594 103.300781 11.375 103.011719 9.71875 103 L 3.175781 103 C 2.449219 103 1.976562 103.09375 1.753906 103.289062 C 1.527344 103.476562 1.410156 103.878906 1.410156 104.5 L 1.410156 104.632812 L 0.859375 104.632812 L 0.859375 100.277344 L 1.410156 100.277344 L 1.410156 100.390625 C 1.410156 101.011719 1.527344 101.421875 1.753906 101.621094 C 1.976562 101.8125 2.449219 101.910156 3.175781 101.910156 L 8.996094 101.910156 C 10.417969 101.910156 11.429688 101.992188 12.027344 102.15625 C 12.625 102.3125 13.167969 102.652344 13.660156 103.175781 C 14.484375 104.046875 14.898438 105.308594 14.898438 106.957031 C 14.898438 108.363281 14.570312 109.476562 13.914062 110.304688 C 13.464844 110.871094 12.929688 111.253906 12.308594 111.445312 C 11.679688 111.632812 10.679688 111.726562 9.296875 111.726562 L 3.175781 111.726562 C 2.449219 111.726562 1.976562 111.824219 1.753906 112.015625 C 1.527344 112.207031 1.410156 112.613281 1.410156 113.226562 L 1.410156 113.351562 "/>
</g>
<g clip-path="url(#clip-1)">
<path fill-rule="nonzero" fill="#E5E7EB" fill-opacity="1" d="M 3.90625 96.515625 L 12.167969 96.515625 C 12.898438 96.515625 13.378906 96.421875 13.605469 96.234375 C 13.828125 96.046875 13.941406 95.652344 13.941406 95.039062 L 13.941406 94.882812 L 14.484375 94.882812 L 14.484375 99.105469 L 13.941406 99.105469 L 13.941406 99 C 13.941406 98.398438 13.828125 98.007812 13.605469 97.824219 C 13.378906 97.636719 12.898438 97.542969 12.167969 97.542969 L 2.789062 97.542969 L 2.429688 97.808594 C 1.75 98.316406 1.410156 98.789062 1.410156 99.21875 L 1.410156 99.378906 L 0.859375 99.378906 L 0.859375 96.773438 L 10.875 88.613281 L 3.175781 88.613281 C 2.449219 88.613281 1.976562 88.710938 1.753906 88.902344 C 1.527344 89.089844 1.410156 89.492188 1.410156 90.105469 L 1.410156 90.246094 L 0.859375 90.246094 L 0.859375 86.03125 L 1.410156 86.03125 L 1.410156 86.191406 C 1.410156 86.792969 1.527344 87.191406 1.753906 87.382812 C 1.976562 87.570312 2.449219 87.664062 3.175781 87.664062 L 14.898438 87.664062 L 3.90625 96.515625 "/>
</g>
<g clip-path="url(#clip-2)">
<path fill-rule="nonzero" fill="#E5E7EB" fill-opacity="1" d="M 14.484375 80.164062 L 14.484375 85.203125 L 13.941406 85.203125 L 13.941406 85.0625 C 13.941406 84.449219 13.828125 84.046875 13.605469 83.859375 C 13.378906 83.667969 12.898438 83.570312 12.167969 83.570312 L 3.175781 83.570312 C 2.449219 83.570312 1.976562 83.667969 1.753906 83.859375 C 1.527344 84.046875 1.410156 84.449219 1.410156 85.0625 L 1.410156 85.203125 L 0.859375 85.203125 L 0.859375 80.164062 L 1.410156 80.164062 L 1.410156 80.296875 C 1.410156 80.910156 1.527344 81.316406 1.753906 81.507812 C 1.976562 81.703125 2.449219 81.796875 3.175781 81.796875 L 12.167969 81.796875 C 12.894531 81.796875 13.371094 81.703125 13.597656 81.507812 C 13.828125 81.316406 13.941406 80.910156 13.941406 80.296875 L 13.941406 80.164062 L 14.484375 80.164062 "/>
</g>
<g clip-path="url(#clip-3)">
<path fill-rule="nonzero" fill="#E5E7EB" fill-opacity="1" d="M 12.230469 72.488281 L 3.132812 68.792969 C 2.546875 68.550781 2.179688 68.433594 2.035156 68.433594 C 1.683594 68.433594 1.480469 68.734375 1.417969 69.335938 L 1.410156 69.484375 L 0.859375 69.484375 L 0.859375 66.132812 L 1.410156 66.132812 L 1.410156 66.28125 C 1.410156 66.625 1.535156 66.914062 1.789062 67.140625 C 2.035156 67.371094 2.5 67.628906 3.183594 67.914062 L 14.898438 72.726562 L 14.898438 73.269531 L 3.183594 78.257812 C 2.003906 78.761719 1.410156 79.222656 1.410156 79.644531 L 1.410156 79.757812 L 0.859375 79.757812 L 0.859375 75.738281 L 1.410156 75.738281 L 1.410156 75.894531 C 1.410156 76.246094 1.445312 76.484375 1.515625 76.605469 C 1.585938 76.730469 1.722656 76.789062 1.929688 76.789062 C 2.117188 76.789062 2.535156 76.652344 3.183594 76.367188 L 12.230469 72.488281 "/>
</g>
<g clip-path="url(#clip-4)">
<path fill-rule="nonzero" fill="#E5E7EB" fill-opacity="1" d="M 7.601562 62.308594 L 12.230469 62.308594 C 12.8125 62.308594 13.222656 62.0625 13.457031 61.570312 C 13.6875 61.074219 13.800781 60.203125 13.800781 58.957031 L 13.800781 58.585938 C 13.800781 58.042969 13.664062 57.640625 13.386719 57.382812 C 13.113281 57.121094 12.625 56.933594 11.929688 56.820312 L 11.761719 56.796875 L 11.761719 56.109375 L 14.730469 56.382812 C 14.65625 57.5 14.617188 58.332031 14.617188 58.875 C 14.617188 59.457031 14.59375 60.136719 14.546875 60.921875 C 14.503906 61.6875 14.484375 62.152344 14.484375 62.308594 L 14.484375 65.714844 L 13.941406 65.714844 L 13.941406 65.558594 C 13.941406 64.972656 13.824219 64.582031 13.589844 64.382812 C 13.351562 64.183594 12.875 64.082031 12.167969 64.082031 L 3.203125 64.082031 C 2.453125 64.082031 1.964844 64.175781 1.746094 64.363281 C 1.523438 64.546875 1.410156 64.945312 1.410156 65.558594 L 1.410156 65.714844 L 0.859375 65.714844 L 0.859375 56.726562 L 3.386719 56.453125 L 3.386719 57.136719 L 3.203125 57.164062 C 2.4375 57.277344 1.964844 57.496094 1.796875 57.832031 C 1.628906 58.160156 1.542969 59.023438 1.542969 60.421875 L 1.542969 62.308594 L 7.058594 62.308594 L 7.058594 60.273438 C 7.058594 59.335938 6.976562 58.738281 6.820312 58.480469 C 6.65625 58.21875 6.289062 58.085938 5.714844 58.085938 L 5.5625 58.085938 L 5.5625 57.410156 L 9.101562 57.410156 L 9.101562 58.085938 L 8.972656 58.085938 C 8.457031 58.085938 8.085938 58.195312 7.863281 58.410156 C 7.6875 58.585938 7.601562 59.207031 7.601562 60.273438 L 7.601562 62.308594 "/>
</g>
<g clip-path="url(#clip-5)">
<path fill-rule="evenodd" fill="#E5E7EB" fill-opacity="1" d="M 7.46875 51.683594 L 7.46875 49.707031 C 7.242188 48.953125 6.824219 48.367188 6.214844 47.953125 C 5.605469 47.535156 4.863281 47.328125 3.992188 47.328125 C 3.089844 47.328125 2.4375 47.617188 2.023438 48.1875 C 1.617188 48.757812 1.410156 49.667969 1.410156 50.929688 L 1.410156 51.683594 Z M 8.015625 51.683594 L 12.167969 51.683594 C 12.894531 51.683594 13.371094 51.589844 13.597656 51.402344 C 13.828125 51.210938 13.941406 50.808594 13.941406 50.199219 L 13.941406 50.121094 L 14.484375 50.121094 L 14.484375 55.089844 L 13.941406 55.089844 L 13.941406 54.957031 C 13.941406 54.335938 13.828125 53.933594 13.605469 53.746094 C 13.378906 53.554688 12.898438 53.457031 12.167969 53.457031 L 3.175781 53.457031 C 2.449219 53.457031 1.976562 53.554688 1.753906 53.746094 C 1.527344 53.933594 1.410156 54.335938 1.410156 54.957031 L 1.410156 55.089844 L 0.859375 55.089844 L 0.859375 49.9375 C 0.859375 48.308594 1.066406 47.160156 1.480469 46.496094 C 1.898438 45.820312 2.609375 45.484375 3.625 45.484375 C 4.570312 45.484375 5.378906 45.753906 6.046875 46.292969 C 6.707031 46.824219 7.234375 47.628906 7.617188 48.707031 C 7.851562 48.328125 8.105469 48.023438 8.375 47.800781 C 8.644531 47.574219 9.25 47.160156 10.191406 46.566406 L 11.621094 45.675781 C 12.59375 45.058594 13.222656 44.613281 13.511719 44.34375 C 13.796875 44.074219 13.941406 43.785156 13.941406 43.484375 L 13.941406 43.375 L 14.484375 43.375 L 14.484375 46.011719 L 8.015625 49.9375 L 8.015625 51.683594 "/>
</g>
<g clip-path="url(#clip-6)">
<path fill-rule="nonzero" fill="#E5E7EB" fill-opacity="1" d="M 14.34375 42.636719 L 11.351562 42.832031 L 11.351562 42.144531 L 11.492188 42.117188 C 12.402344 41.941406 13.109375 41.578125 13.605469 41.019531 C 14.097656 40.464844 14.34375 39.757812 14.34375 38.90625 C 14.34375 38.132812 14.085938 37.472656 13.5625 36.921875 C 13.035156 36.363281 12.402344 36.085938 11.667969 36.085938 C 10.734375 36.085938 9.785156 36.796875 8.8125 38.21875 L 7.882812 39.570312 C 6.980469 40.882812 6.28125 41.742188 5.785156 42.152344 C 5.28125 42.558594 4.675781 42.761719 3.964844 42.761719 C 2.914062 42.761719 2.0625 42.335938 1.417969 41.488281 C 0.777344 40.632812 0.453125 39.507812 0.453125 38.117188 C 0.453125 37.027344 0.648438 35.917969 1.035156 34.789062 L 3.589844 34.496094 L 3.589844 35.199219 L 3.449219 35.242188 C 1.816406 35.710938 0.996094 36.785156 0.996094 38.457031 C 0.996094 39.207031 1.222656 39.828125 1.675781 40.320312 C 2.125 40.808594 2.695312 41.054688 3.386719 41.054688 C 4.257812 41.054688 5.113281 40.449219 5.949219 39.230469 L 7.285156 37.28125 C 8.121094 36.0625 8.789062 35.265625 9.289062 34.882812 C 9.777344 34.503906 10.398438 34.3125 11.140625 34.3125 C 12.289062 34.3125 13.199219 34.753906 13.878906 35.628906 C 14.558594 36.503906 14.898438 37.675781 14.898438 39.152344 C 14.898438 40.382812 14.714844 41.542969 14.34375 42.636719 "/>
</g>
<g clip-path="url(#clip-7)">
<path fill-rule="nonzero" fill="#E5E7EB" fill-opacity="1" d="M 14.484375 27.839844 L 14.484375 32.878906 L 13.941406 32.878906 L 13.941406 32.738281 C 13.941406 32.125 13.828125 31.722656 13.605469 31.535156 C 13.378906 31.34375 12.898438 31.246094 12.167969 31.246094 L 3.175781 31.246094 C 2.449219 31.246094 1.976562 31.34375 1.753906 31.535156 C 1.527344 31.722656 1.410156 32.125 1.410156 32.738281 L 1.410156 32.878906 L 0.859375 32.878906 L 0.859375 27.839844 L 1.410156 27.839844 L 1.410156 27.972656 C 1.410156 28.585938 1.527344 28.992188 1.753906 29.183594 C 1.976562 29.375 2.449219 29.472656 3.175781 29.472656 L 12.167969 29.472656 C 12.894531 29.472656 13.371094 29.375 13.597656 29.183594 C 13.828125 28.992188 13.941406 28.585938 13.941406 27.972656 L 13.941406 27.839844 L 14.484375 27.839844 "/>
</g>
<g clip-path="url(#clip-8)">
<path fill-rule="nonzero" fill="#E5E7EB" fill-opacity="1" d="M 1.542969 22.015625 L 1.542969 23.402344 C 1.542969 24.445312 1.683594 25.164062 1.964844 25.5625 C 2.246094 25.960938 2.796875 26.222656 3.613281 26.34375 L 3.789062 26.371094 L 3.789062 27.089844 L 0.621094 26.757812 C 0.777344 25.242188 0.859375 23.660156 0.859375 22.015625 L 0.859375 20.179688 C 0.859375 18.535156 0.777344 16.957031 0.621094 15.4375 L 3.789062 15.105469 L 3.789062 15.816406 L 3.613281 15.851562 C 2.796875 15.976562 2.246094 16.234375 1.964844 16.632812 C 1.683594 17.03125 1.542969 17.753906 1.542969 18.792969 L 1.542969 20.179688 L 12.175781 20.179688 C 12.910156 20.179688 13.382812 20.070312 13.605469 19.847656 C 13.828125 19.621094 13.941406 19.140625 13.941406 18.40625 L 13.941406 18.277344 L 14.484375 18.277344 L 14.484375 23.921875 L 13.941406 23.921875 L 13.941406 23.789062 C 13.941406 23.054688 13.828125 22.570312 13.605469 22.351562 C 13.382812 22.128906 12.910156 22.015625 12.175781 22.015625 L 1.542969 22.015625 "/>
</g>
<g clip-path="url(#clip-9)">
<path fill-rule="evenodd" fill="#E5E7EB" fill-opacity="1" d="M 9.515625 12.003906 L 9.515625 6.683594 L 3.089844 9.402344 Z M 10.191406 12.257812 L 12.21875 13.09375 C 12.792969 13.332031 13.15625 13.453125 13.308594 13.453125 C 13.667969 13.453125 13.871094 13.152344 13.921875 12.546875 L 13.941406 12.40625 L 14.484375 12.40625 L 14.484375 15.753906 L 13.941406 15.753906 L 13.941406 15.613281 C 13.941406 15.261719 13.816406 14.972656 13.574219 14.742188 C 13.320312 14.515625 12.847656 14.257812 12.15625 13.976562 L 0.453125 9.167969 L 0.453125 8.613281 L 12.15625 3.636719 C 12.882812 3.324219 13.363281 3.082031 13.597656 2.898438 C 13.828125 2.71875 13.941406 2.496094 13.941406 2.238281 L 13.941406 2.125 L 14.484375 2.125 L 14.484375 6.148438 L 13.941406 6.148438 L 13.941406 6 C 13.941406 5.640625 13.90625 5.402344 13.835938 5.277344 C 13.765625 5.15625 13.628906 5.09375 13.421875 5.09375 C 13.253906 5.09375 12.832031 5.234375 12.15625 5.515625 L 10.191406 6.339844 L 10.191406 12.257812 "/>
</g>
<g clip-path="url(#clip-10)">
<path fill-rule="evenodd" fill="#E5E7EB" fill-opacity="1" d="M 5.636719 2.832031 L 5.046875 2.832031 C 4.464844 1.917969 3.546875 1.425781 2.289062 1.347656 L 1.535156 2.832031 C 0.539062 2.703125 0.0429688 2.210938 0.0429688 1.347656 C 0.0429688 0.957031 0.191406 0.632812 0.488281 0.382812 C 0.785156 0.132812 1.171875 0.00390625 1.640625 0.00390625 C 3.160156 0.00390625 4.492188 0.949219 5.636719 2.832031 "/>
</g>
<path fill-rule="evenodd" fill="#E5E7EB" fill-opacity="1" d="M 22.496094 2.902344 L 22.496094 12.996094 C 22.496094 14.054688 23.410156 14.582031 25.238281 14.582031 C 26.597656 14.582031 27.683594 14.066406 28.496094 13.035156 C 29.308594 12 29.714844 10.613281 29.714844 8.878906 C 29.714844 7.175781 29.226562 5.765625 28.25 4.640625 C 27.675781 3.980469 27.035156 3.527344 26.332031 3.28125 C 25.636719 3.027344 24.648438 2.902344 23.371094 2.902344 Z M 19.304688 15.160156 L 19.304688 14.648438 L 19.46875 14.648438 C 20.027344 14.648438 20.394531 14.546875 20.570312 14.335938 C 20.746094 14.121094 20.832031 13.675781 20.832031 12.996094 L 20.832031 4.574219 C 20.832031 3.882812 20.746094 3.433594 20.570312 3.222656 C 20.394531 3.007812 20.027344 2.902344 19.46875 2.902344 L 19.304688 2.902344 L 19.304688 2.382812 L 24.050781 2.382812 C 25.675781 2.417969 26.824219 2.519531 27.492188 2.699219 C 28.164062 2.867188 28.878906 3.21875 29.640625 3.75 C 30.921875 4.738281 31.558594 6.246094 31.558594 8.269531 C 31.558594 10.210938 30.980469 11.871094 29.824219 13.25 C 29.207031 13.972656 28.488281 14.472656 27.660156 14.75 C 26.835938 15.023438 25.632812 15.160156 24.050781 15.160156 L 19.304688 15.160156 "/>
<path fill-rule="nonzero" fill="#E5E7EB" fill-opacity="1" d="M 35.996094 8.707031 L 35.996094 13.042969 C 35.996094 13.59375 36.226562 13.976562 36.6875 14.195312 C 37.152344 14.410156 37.96875 14.519531 39.140625 14.519531 L 39.484375 14.519531 C 39.996094 14.519531 40.371094 14.386719 40.613281 14.128906 C 40.859375 13.871094 41.035156 13.417969 41.140625 12.761719 L 41.164062 12.605469 L 41.808594 12.605469 L 41.550781 15.390625 C 40.503906 15.320312 39.722656 15.28125 39.214844 15.28125 C 38.671875 15.28125 38.03125 15.261719 37.296875 15.21875 C 36.578125 15.179688 36.144531 15.160156 35.996094 15.160156 L 32.800781 15.160156 L 32.800781 14.648438 L 32.949219 14.648438 C 33.496094 14.648438 33.867188 14.539062 34.050781 14.320312 C 34.238281 14.09375 34.332031 13.648438 34.332031 12.988281 L 34.332031 4.582031 C 34.332031 3.878906 34.246094 3.425781 34.070312 3.214844 C 33.898438 3.007812 33.523438 2.902344 32.949219 2.902344 L 32.800781 2.902344 L 32.800781 2.382812 L 41.230469 2.382812 L 41.484375 4.753906 L 40.84375 4.753906 L 40.820312 4.582031 C 40.714844 3.863281 40.503906 3.425781 40.191406 3.265625 C 39.886719 3.105469 39.074219 3.027344 37.765625 3.027344 L 35.996094 3.027344 L 35.996094 8.195312 L 37.90625 8.195312 C 38.78125 8.195312 39.34375 8.121094 39.582031 7.972656 C 39.832031 7.820312 39.953125 7.472656 39.953125 6.9375 L 39.953125 6.796875 L 40.589844 6.796875 L 40.589844 10.113281 L 39.953125 10.113281 L 39.953125 9.992188 C 39.953125 9.507812 39.851562 9.160156 39.648438 8.953125 C 39.484375 8.789062 38.902344 8.707031 37.90625 8.707031 L 35.996094 8.707031 "/>
<path fill-rule="nonzero" fill="#E5E7EB" fill-opacity="1" d="M 53.246094 14.832031 C 51.859375 15.308594 50.558594 15.546875 49.351562 15.546875 C 47.121094 15.546875 45.460938 14.820312 44.371094 13.367188 C 43.433594 12.101562 42.964844 10.570312 42.964844 8.761719 C 42.964844 6.738281 43.523438 5.105469 44.644531 3.867188 C 45.769531 2.625 47.25 2.007812 49.089844 2.007812 C 50.542969 2.007812 51.847656 2.179688 53 2.523438 L 53.246094 5.066406 L 52.605469 5.066406 L 52.578125 4.929688 C 52.566406 4.523438 52.378906 4.0625 52.011719 3.546875 C 51.375 2.859375 50.449219 2.515625 49.230469 2.515625 C 47.902344 2.515625 46.828125 3.097656 46.011719 4.261719 C 45.191406 5.425781 44.785156 6.953125 44.785156 8.855469 C 44.785156 10.738281 45.238281 12.183594 46.140625 13.199219 C 47.054688 14.210938 48.351562 14.714844 50.035156 14.714844 C 50.464844 14.714844 51.023438 14.660156 51.714844 14.550781 L 51.714844 11.636719 C 51.714844 10.960938 51.625 10.519531 51.445312 10.308594 C 51.269531 10.097656 50.898438 9.992188 50.332031 9.992188 L 50.183594 9.992188 L 50.183594 9.480469 L 54.777344 9.480469 L 54.777344 9.992188 L 54.664062 9.992188 C 54.078125 9.992188 53.699219 10.097656 53.519531 10.308594 C 53.335938 10.519531 53.246094 10.960938 53.246094 11.636719 L 53.246094 14.832031 "/>
<path fill-rule="nonzero" fill="#E5E7EB" fill-opacity="1" d="M 64.191406 12.285156 L 64.835938 12.285156 L 64.539062 15.332031 C 62.652344 15.21875 60.8125 15.160156 59.023438 15.160156 L 55.828125 15.160156 L 55.828125 14.648438 L 55.976562 14.648438 C 56.546875 14.648438 56.921875 14.542969 57.097656 14.328125 C 57.273438 14.113281 57.359375 13.660156 57.359375 12.96875 L 57.359375 4.558594 C 57.359375 3.875 57.269531 3.433594 57.089844 3.222656 C 56.914062 3.007812 56.542969 2.902344 55.976562 2.902344 L 55.828125 2.902344 L 55.828125 2.382812 L 60.554688 2.382812 L 60.554688 2.902344 L 60.414062 2.902344 C 59.84375 2.902344 59.46875 3.007812 59.285156 3.222656 C 59.109375 3.433594 59.023438 3.875 59.023438 4.558594 L 59.023438 12.96875 C 59.023438 13.523438 59.222656 13.898438 59.625 14.097656 C 60.023438 14.296875 60.789062 14.394531 61.914062 14.394531 L 62.316406 14.394531 C 62.992188 14.394531 63.421875 14.261719 63.617188 14 C 63.894531 13.609375 64.078125 13.101562 64.167969 12.476562 L 64.191406 12.285156 "/>
<path fill-rule="nonzero" fill="#E5E7EB" fill-opacity="1" d="M 70.28125 15.160156 L 65.558594 15.160156 L 65.558594 14.648438 L 65.6875 14.648438 C 66.265625 14.648438 66.640625 14.546875 66.816406 14.335938 C 66.996094 14.121094 67.089844 13.671875 67.089844 12.988281 L 67.089844 4.558594 C 67.089844 3.875 66.996094 3.433594 66.816406 3.222656 C 66.640625 3.007812 66.265625 2.902344 65.6875 2.902344 L 65.558594 2.902344 L 65.558594 2.382812 L 70.28125 2.382812 L 70.28125 2.902344 L 70.15625 2.902344 C 69.582031 2.902344 69.203125 3.007812 69.023438 3.222656 C 68.839844 3.433594 68.75 3.875 68.75 4.558594 L 68.75 12.988281 C 68.75 13.667969 68.839844 14.113281 69.023438 14.328125 C 69.203125 14.542969 69.582031 14.648438 70.15625 14.648438 L 70.28125 14.648438 L 70.28125 15.160156 "/>
<path fill-rule="nonzero" fill="#E5E7EB" fill-opacity="1" d="M 77.199219 15.027344 L 77.019531 12.222656 L 77.664062 12.222656 L 77.6875 12.351562 C 77.851562 13.207031 78.195312 13.871094 78.714844 14.335938 C 79.238281 14.796875 79.898438 15.027344 80.699219 15.027344 C 81.425781 15.027344 82.042969 14.785156 82.558594 14.296875 C 83.082031 13.800781 83.339844 13.207031 83.339844 12.515625 C 83.339844 11.644531 82.675781 10.753906 81.339844 9.839844 L 80.074219 8.96875 C 78.84375 8.125 78.039062 7.46875 77.65625 7 C 77.273438 6.53125 77.085938 5.960938 77.085938 5.296875 C 77.085938 4.308594 77.484375 3.515625 78.277344 2.910156 C 79.078125 2.308594 80.132812 2.007812 81.441406 2.007812 C 82.460938 2.007812 83.5 2.1875 84.558594 2.546875 L 84.832031 4.945312 L 84.171875 4.945312 L 84.132812 4.8125 C 83.691406 3.28125 82.6875 2.515625 81.121094 2.515625 C 80.414062 2.515625 79.835938 2.726562 79.375 3.148438 C 78.914062 3.570312 78.683594 4.109375 78.683594 4.753906 C 78.683594 5.570312 79.253906 6.375 80.394531 7.160156 L 82.222656 8.410156 C 83.363281 9.195312 84.113281 9.820312 84.46875 10.285156 C 84.824219 10.746094 85.003906 11.324219 85.003906 12.023438 C 85.003906 13.097656 84.59375 13.957031 83.769531 14.589844 C 82.953125 15.226562 81.851562 15.546875 80.46875 15.546875 C 79.316406 15.546875 78.226562 15.375 77.199219 15.027344 "/>
<path fill-rule="nonzero" fill="#E5E7EB" fill-opacity="1" d="M 90.929688 3.027344 L 89.628906 3.027344 C 88.652344 3.027344 87.976562 3.15625 87.601562 3.421875 C 87.230469 3.683594 86.988281 4.203125 86.871094 4.96875 L 86.847656 5.132812 L 86.171875 5.132812 L 86.484375 2.160156 C 87.90625 2.308594 89.386719 2.382812 90.929688 2.382812 L 92.648438 2.382812 C 94.191406 2.382812 95.671875 2.308594 97.09375 2.160156 L 97.40625 5.132812 L 96.742188 5.132812 L 96.707031 4.96875 C 96.59375 4.203125 96.347656 3.683594 95.972656 3.421875 C 95.601562 3.15625 94.929688 3.027344 93.949219 3.027344 L 92.648438 3.027344 L 92.648438 12.996094 C 92.648438 13.679688 92.753906 14.128906 92.960938 14.335938 C 93.175781 14.546875 93.625 14.648438 94.3125 14.648438 L 94.433594 14.648438 L 94.433594 15.160156 L 89.140625 15.160156 L 89.140625 14.648438 L 89.265625 14.648438 C 89.957031 14.648438 90.40625 14.546875 90.617188 14.335938 C 90.824219 14.128906 90.929688 13.679688 90.929688 12.996094 L 90.929688 3.027344 "/>
<path fill-rule="nonzero" fill="#E5E7EB" fill-opacity="1" d="M 98.0625 2.902344 L 98.0625 2.382812 L 102.78125 2.382812 L 102.78125 2.902344 L 102.648438 2.902344 C 102.070312 2.902344 101.695312 3.007812 101.511719 3.222656 C 101.332031 3.433594 101.242188 3.875 101.242188 4.558594 L 101.242188 10.292969 C 101.242188 12.050781 101.550781 13.277344 102.164062 13.972656 C 102.777344 14.675781 103.621094 15.027344 104.691406 15.027344 C 105.65625 15.027344 106.410156 14.695312 106.945312 14.023438 C 107.484375 13.355469 107.757812 12.242188 107.769531 10.691406 L 107.769531 4.558594 C 107.769531 3.875 107.679688 3.433594 107.496094 3.222656 C 107.320312 3.007812 106.941406 2.902344 106.363281 2.902344 L 106.238281 2.902344 L 106.238281 2.382812 L 110.320312 2.382812 L 110.320312 2.902344 L 110.214844 2.902344 C 109.632812 2.902344 109.246094 3.007812 109.0625 3.222656 C 108.878906 3.433594 108.789062 3.875 108.789062 4.558594 L 108.789062 10.015625 C 108.789062 11.347656 108.710938 12.296875 108.558594 12.855469 C 108.410156 13.414062 108.09375 13.925781 107.605469 14.386719 C 106.789062 15.160156 105.605469 15.546875 104.058594 15.546875 C 102.738281 15.546875 101.695312 15.238281 100.921875 14.625 C 100.386719 14.203125 100.03125 13.699219 99.851562 13.117188 C 99.675781 12.53125 99.585938 11.589844 99.585938 10.292969 L 99.585938 4.558594 C 99.585938 3.875 99.496094 3.433594 99.316406 3.222656 C 99.132812 3.007812 98.753906 2.902344 98.179688 2.902344 L 98.0625 2.902344 "/>
<path fill-rule="evenodd" fill="#E5E7EB" fill-opacity="1" d="M 114.558594 2.902344 L 114.558594 12.996094 C 114.558594 14.054688 115.472656 14.582031 117.300781 14.582031 C 118.660156 14.582031 119.746094 14.066406 120.558594 13.035156 C 121.371094 12 121.777344 10.613281 121.777344 8.878906 C 121.777344 7.175781 121.289062 5.765625 120.3125 4.640625 C 119.734375 3.980469 119.097656 3.527344 118.394531 3.28125 C 117.695312 3.027344 116.707031 2.902344 115.429688 2.902344 Z M 111.363281 15.160156 L 111.363281 14.648438 L 111.527344 14.648438 C 112.089844 14.648438 112.457031 14.546875 112.632812 14.335938 C 112.808594 14.121094 112.894531 13.675781 112.894531 12.996094 L 112.894531 4.574219 C 112.894531 3.882812 112.808594 3.433594 112.632812 3.222656 C 112.457031 3.007812 112.089844 2.902344 111.527344 2.902344 L 111.363281 2.902344 L 111.363281 2.382812 L 116.113281 2.382812 C 117.738281 2.417969 118.886719 2.519531 119.554688 2.699219 C 120.222656 2.867188 120.941406 3.21875 121.703125 3.75 C 122.980469 4.738281 123.621094 6.246094 123.621094 8.269531 C 123.621094 10.210938 123.042969 11.871094 121.882812 13.25 C 121.269531 13.972656 120.550781 14.472656 119.71875 14.75 C 118.894531 15.023438 117.695312 15.160156 116.113281 15.160156 L 111.363281 15.160156 "/>
<path fill-rule="nonzero" fill="#E5E7EB" fill-opacity="1" d="M 129.589844 15.160156 L 124.863281 15.160156 L 124.863281 14.648438 L 124.996094 14.648438 C 125.570312 14.648438 125.945312 14.546875 126.121094 14.335938 C 126.304688 14.121094 126.394531 13.671875 126.394531 12.988281 L 126.394531 4.558594 C 126.394531 3.875 126.304688 3.433594 126.121094 3.222656 C 125.945312 3.007812 125.570312 2.902344 124.996094 2.902344 L 124.863281 2.902344 L 124.863281 2.382812 L 129.589844 2.382812 L 129.589844 2.902344 L 129.464844 2.902344 C 128.886719 2.902344 128.507812 3.007812 128.328125 3.222656 C 128.148438 3.433594 128.054688 3.875 128.054688 4.558594 L 128.054688 12.988281 C 128.054688 13.667969 128.148438 14.113281 128.328125 14.328125 C 128.507812 14.542969 128.886719 14.648438 129.464844 14.648438 L 129.589844 14.648438 L 129.589844 15.160156 "/>
<path fill-rule="evenodd" fill="#E5E7EB" fill-opacity="1" d="M 129.214844 23.109375 L 119.121094 23.109375 C 118.0625 23.109375 117.53125 24.023438 117.53125 25.851562 C 117.53125 27.210938 118.050781 28.296875 119.082031 29.109375 C 120.117188 29.921875 121.503906 30.328125 123.238281 30.328125 C 124.9375 30.328125 126.351562 29.839844 127.476562 28.863281 C 128.132812 28.285156 128.585938 27.648438 128.835938 26.945312 C 129.085938 26.25 129.214844 25.261719 129.214844 23.980469 Z M 116.957031 19.914062 L 117.46875 19.914062 L 117.46875 20.082031 C 117.46875 20.640625 117.570312 21.007812 117.78125 21.183594 C 117.992188 21.359375 118.441406 21.445312 119.121094 21.445312 L 127.542969 21.445312 C 128.234375 21.445312 128.683594 21.359375 128.890625 21.183594 C 129.105469 21.007812 129.214844 20.640625 129.214844 20.082031 L 129.214844 19.914062 L 129.734375 19.914062 L 129.734375 24.664062 C 129.699219 26.289062 129.59375 27.4375 129.417969 28.105469 C 129.25 28.773438 128.898438 29.492188 128.363281 30.253906 C 127.378906 31.53125 125.871094 32.171875 123.847656 32.171875 C 121.902344 32.171875 120.242188 31.59375 118.867188 30.4375 C 118.140625 29.820312 117.644531 29.097656 117.367188 28.269531 C 117.09375 27.445312 116.957031 26.246094 116.957031 24.664062 L 116.957031 19.914062 "/>
<path fill-rule="nonzero" fill="#E5E7EB" fill-opacity="1" d="M 116.957031 37.910156 L 116.957031 33.183594 L 117.46875 33.183594 L 117.46875 33.316406 C 117.46875 33.890625 117.570312 34.269531 117.78125 34.445312 C 117.992188 34.625 118.445312 34.714844 119.128906 34.714844 L 127.558594 34.714844 C 128.238281 34.714844 128.683594 34.625 128.890625 34.445312 C 129.105469 34.269531 129.214844 33.890625 129.214844 33.316406 L 129.214844 33.183594 L 129.734375 33.183594 L 129.734375 37.910156 L 129.214844 37.910156 L 129.214844 37.785156 C 129.214844 37.210938 129.105469 36.832031 128.890625 36.652344 C 128.683594 36.46875 128.238281 36.378906 127.558594 36.378906 L 119.128906 36.378906 C 118.449219 36.378906 118 36.46875 117.789062 36.652344 C 117.574219 36.832031 117.46875 37.210938 117.46875 37.785156 L 117.46875 37.910156 L 116.957031 37.910156 "/>
<path fill-rule="nonzero" fill="#E5E7EB" fill-opacity="1" d="M 127.558594 46.496094 L 119.128906 46.496094 C 118.449219 46.496094 118 46.585938 117.789062 46.765625 C 117.574219 46.949219 117.46875 47.328125 117.46875 47.910156 L 117.46875 48.027344 L 116.957031 48.027344 L 116.957031 44.132812 L 117.46875 44.132812 L 117.46875 44.25 C 117.46875 44.832031 117.574219 45.210938 117.789062 45.394531 C 118 45.574219 118.449219 45.664062 119.128906 45.664062 L 127.558594 45.664062 C 128.238281 45.664062 128.683594 45.574219 128.890625 45.394531 C 129.105469 45.210938 129.214844 44.832031 129.214844 44.25 L 129.214844 44.132812 L 129.734375 44.132812 L 129.734375 47.105469 L 120.554688 51.847656 L 129.734375 56.199219 L 129.734375 59.269531 L 129.214844 59.269531 L 129.214844 59.140625 C 129.214844 58.5625 129.105469 58.183594 128.890625 58.003906 C 128.683594 57.820312 128.238281 57.730469 127.558594 57.730469 L 119.449219 57.730469 C 118.550781 57.730469 117.992188 57.820312 117.78125 58.003906 C 117.570312 58.183594 117.46875 58.5625 117.46875 59.140625 L 117.46875 59.269531 L 116.957031 59.269531 L 116.957031 54.667969 L 117.46875 54.667969 L 117.46875 54.769531 C 117.46875 55.355469 117.570312 55.738281 117.78125 55.921875 C 117.992188 56.105469 118.445312 56.199219 119.128906 56.199219 L 128.40625 56.199219 L 118.207031 51.328125 L 127.558594 46.496094 "/>
<path fill-rule="nonzero" fill="#E5E7EB" fill-opacity="1" d="M 116.957031 64.933594 L 116.957031 60.210938 L 117.46875 60.210938 L 117.46875 60.339844 C 117.46875 60.917969 117.570312 61.292969 117.78125 61.46875 C 117.992188 61.648438 118.445312 61.738281 119.128906 61.738281 L 127.558594 61.738281 C 128.238281 61.738281 128.683594 61.648438 128.890625 61.46875 C 129.105469 61.292969 129.214844 60.917969 129.214844 60.339844 L 129.214844 60.210938 L 129.734375 60.210938 L 129.734375 64.933594 L 129.214844 64.933594 L 129.214844 64.8125 C 129.214844 64.234375 129.105469 63.855469 128.890625 63.675781 C 128.683594 63.492188 128.238281 63.402344 127.558594 63.402344 L 119.128906 63.402344 C 118.449219 63.402344 118 63.492188 117.789062 63.675781 C 117.574219 63.855469 117.46875 64.234375 117.46875 64.8125 L 117.46875 64.933594 L 116.957031 64.933594 "/>
<path fill-rule="nonzero" fill="#E5E7EB" fill-opacity="1" d="M 119.828125 74.238281 L 119.828125 74.878906 L 116.785156 74.582031 C 116.898438 72.691406 116.957031 70.855469 116.957031 69.066406 L 116.957031 65.875 L 117.46875 65.875 L 117.46875 66.023438 C 117.46875 66.589844 117.574219 66.964844 117.789062 67.140625 C 118 67.316406 118.453125 67.402344 119.144531 67.402344 L 127.558594 67.402344 C 128.238281 67.402344 128.683594 67.3125 128.890625 67.132812 C 129.105469 66.957031 129.214844 66.585938 129.214844 66.023438 L 129.214844 65.875 L 129.734375 65.875 L 129.734375 70.597656 L 129.214844 70.597656 L 129.214844 70.457031 C 129.214844 69.886719 129.105469 69.511719 128.890625 69.328125 C 128.683594 69.152344 128.238281 69.066406 127.558594 69.066406 L 119.144531 69.066406 C 118.589844 69.066406 118.214844 69.265625 118.019531 69.667969 C 117.820312 70.066406 117.722656 70.832031 117.722656 71.957031 L 117.722656 72.359375 C 117.722656 73.035156 117.851562 73.46875 118.117188 73.660156 C 118.507812 73.9375 119.015625 74.121094 119.640625 74.210938 L 119.828125 74.238281 "/>
<path fill-rule="evenodd" fill="#E5E7EB" fill-opacity="1" d="M 121.617188 78.5 L 121.617188 83.484375 L 127.640625 80.933594 Z M 120.980469 78.257812 L 119.082031 77.476562 C 118.542969 77.253906 118.203125 77.140625 118.058594 77.140625 C 117.722656 77.140625 117.53125 77.421875 117.484375 77.988281 L 117.46875 78.121094 L 116.957031 78.121094 L 116.957031 74.984375 L 117.46875 74.984375 L 117.46875 75.117188 C 117.46875 75.445312 117.582031 75.714844 117.8125 75.929688 C 118.050781 76.144531 118.492188 76.382812 119.136719 76.648438 L 130.109375 81.15625 L 130.109375 81.675781 L 119.136719 86.34375 C 118.457031 86.632812 118.007812 86.863281 117.789062 87.035156 C 117.574219 87.203125 117.46875 87.410156 117.46875 87.652344 L 117.46875 87.757812 L 116.957031 87.757812 L 116.957031 83.988281 L 117.46875 83.988281 L 117.46875 84.128906 C 117.46875 84.460938 117.5 84.6875 117.566406 84.804688 C 117.628906 84.917969 117.761719 84.976562 117.953125 84.976562 C 118.109375 84.976562 118.507812 84.84375 119.136719 84.582031 L 120.980469 83.808594 L 120.980469 78.257812 "/>
<path fill-rule="nonzero" fill="#E5E7EB" fill-opacity="1" d="M 126.875 90.746094 L 119.128906 90.746094 C 118.445312 90.746094 117.992188 90.832031 117.78125 91.011719 C 117.570312 91.183594 117.46875 91.558594 117.46875 92.128906 L 117.46875 92.277344 L 116.957031 92.277344 L 116.957031 88.320312 L 117.46875 88.320312 L 117.46875 88.417969 C 117.46875 88.980469 117.570312 89.351562 117.78125 89.519531 C 117.992188 89.695312 118.445312 89.785156 119.128906 89.785156 L 127.921875 89.785156 L 128.257812 89.535156 C 128.894531 89.058594 129.214844 88.617188 129.214844 88.210938 L 129.214844 88.0625 L 129.734375 88.0625 L 129.734375 90.507812 L 120.339844 98.15625 L 127.558594 98.15625 C 128.238281 98.15625 128.683594 98.0625 128.890625 97.882812 C 129.105469 97.707031 129.214844 97.332031 129.214844 96.753906 L 129.214844 96.625 L 129.734375 96.625 L 129.734375 100.574219 L 129.214844 100.574219 L 129.214844 100.425781 C 129.214844 99.863281 129.105469 99.488281 128.890625 99.308594 C 128.683594 99.132812 128.238281 99.042969 127.558594 99.042969 L 116.570312 99.042969 L 126.875 90.746094 "/>
<path fill-rule="evenodd" fill="#E5E7EB" fill-opacity="1" d="M 117.089844 107.390625 C 117.089844 108.597656 117.671875 109.59375 118.839844 110.371094 C 120.015625 111.152344 121.515625 111.539062 123.34375 111.539062 C 125.164062 111.539062 126.664062 111.152344 127.839844 110.371094 C 129.011719 109.59375 129.601562 108.597656 129.601562 107.390625 C 129.601562 106.183594 129.011719 105.191406 127.839844 104.410156 C 126.664062 103.632812 125.164062 103.242188 123.34375 103.242188 C 121.515625 103.242188 120.015625 103.628906 118.839844 104.402344 C 117.671875 105.183594 117.089844 106.179688 117.089844 107.390625 Z M 116.570312 107.390625 C 116.570312 105.613281 117.203125 104.15625 118.472656 103.019531 C 119.738281 101.890625 121.363281 101.324219 123.34375 101.324219 C 125.324219 101.324219 126.945312 101.890625 128.210938 103.019531 C 129.476562 104.15625 130.109375 105.613281 130.109375 107.390625 C 130.109375 109 129.625 110.3125 128.660156 111.332031 C 128.046875 111.984375 127.261719 112.503906 126.308594 112.882812 C 125.351562 113.265625 124.363281 113.457031 123.34375 113.457031 C 121.363281 113.457031 119.738281 112.890625 118.472656 111.753906 C 117.203125 110.621094 116.570312 109.167969 116.570312 107.390625 "/>
<path fill-rule="evenodd" fill="#E5E7EB" fill-opacity="1" d="M 6.191406 129.859375 L 6.761719 129.859375 C 7.539062 129.859375 7.875 130.058594 7.875 131.003906 L 7.875 136.328125 C 7.875 137.273438 7.539062 137.476562 6.761719 137.476562 L 6.191406 137.476562 Z M 1.4375 140.914062 L 7.03125 140.914062 C 10.707031 140.914062 12.628906 139.632812 12.628906 135.519531 L 12.628906 133.429688 C 12.628906 129.585938 11.515625 128.441406 9.054688 128.203125 L 9.054688 128.101562 C 12.089844 127.496094 12.628906 125.878906 12.628906 123.585938 L 12.628906 121.765625 C 12.628906 118.089844 9.964844 116.910156 7.03125 116.910156 L 1.4375 116.910156 Z M 7.875 125.375 C 7.875 126.519531 7.539062 126.890625 6.761719 126.890625 L 6.191406 126.890625 L 6.191406 120.347656 L 6.761719 120.347656 C 7.539062 120.347656 7.875 120.71875 7.875 121.867188 L 7.875 125.375 "/>
<path fill-rule="nonzero" fill="#E5E7EB" fill-opacity="1" d="M 27.144531 140.914062 L 27.144531 116.910156 L 22.390625 116.910156 L 22.390625 140.914062 L 27.144531 140.914062 "/>
<path fill-rule="nonzero" fill="#E5E7EB" fill-opacity="1" d="M 43.378906 131.476562 L 43.378906 136.230469 C 43.378906 136.902344 43.277344 137.8125 42.535156 137.8125 C 41.796875 137.8125 41.695312 136.902344 41.695312 136.230469 L 41.695312 121.597656 C 41.695312 120.921875 41.796875 120.011719 42.535156 120.011719 C 43.277344 120.011719 43.378906 120.921875 43.378906 121.597656 L 43.378906 125.375 L 48.132812 125.375 L 48.132812 120.820312 C 48.132812 117.621094 45.46875 116.4375 42.535156 116.4375 C 39.605469 116.4375 36.941406 117.621094 36.941406 120.820312 L 36.941406 137.003906 C 36.941406 140.207031 39.605469 141.386719 42.535156 141.386719 C 45.46875 141.386719 48.132812 140.207031 48.132812 137.003906 L 48.132812 131.476562 L 43.378906 131.476562 "/>
<path fill-rule="evenodd" fill="#E5E7EB" fill-opacity="1" d="M 63.929688 136.230469 C 63.929688 136.902344 63.828125 137.8125 63.085938 137.8125 C 62.347656 137.8125 62.246094 136.902344 62.246094 136.230469 L 62.246094 121.597656 C 62.246094 120.921875 62.347656 120.011719 63.085938 120.011719 C 63.828125 120.011719 63.929688 120.921875 63.929688 121.597656 Z M 57.492188 137.003906 C 57.492188 140.207031 60.15625 141.386719 63.085938 141.386719 C 66.023438 141.386719 68.683594 140.207031 68.683594 137.003906 L 68.683594 120.820312 C 68.683594 117.621094 66.023438 116.4375 63.085938 116.4375 C 60.15625 116.4375 57.492188 117.621094 57.492188 120.820312 L 57.492188 137.003906 "/>
<path fill-rule="nonzero" fill="#E5E7EB" fill-opacity="1" d="M 84.480469 131.476562 L 84.480469 136.230469 C 84.480469 136.902344 84.378906 137.8125 83.640625 137.8125 C 82.898438 137.8125 82.796875 136.902344 82.796875 136.230469 L 82.796875 121.597656 C 82.796875 120.921875 82.898438 120.011719 83.640625 120.011719 C 84.378906 120.011719 84.480469 120.921875 84.480469 121.597656 L 84.480469 125.375 L 89.234375 125.375 L 89.234375 120.820312 C 89.234375 117.621094 86.570312 116.4375 83.640625 116.4375 C 80.703125 116.4375 78.042969 117.621094 78.042969 120.820312 L 78.042969 137.003906 C 78.042969 140.207031 80.703125 141.386719 83.640625 141.386719 C 86.570312 141.386719 89.234375 140.207031 89.234375 137.003906 L 89.234375 131.476562 L 84.480469 131.476562 "/>
<path fill-rule="nonzero" fill="#E5E7EB" fill-opacity="1" d="M 105.03125 131.476562 L 105.03125 136.230469 C 105.03125 136.902344 104.929688 137.8125 104.1875 137.8125 C 103.449219 137.8125 103.347656 136.902344 103.347656 136.230469 L 103.347656 121.597656 C 103.347656 120.921875 103.449219 120.011719 104.1875 120.011719 C 104.929688 120.011719 105.03125 120.921875 105.03125 121.597656 L 105.03125 125.375 L 109.785156 125.375 L 109.785156 120.820312 C 109.785156 117.621094 107.121094 116.4375 104.1875 116.4375 C 101.257812 116.4375 98.59375 117.621094 98.59375 120.820312 L 98.59375 137.003906 C 98.59375 140.207031 101.257812 141.386719 104.1875 141.386719 C 107.121094 141.386719 109.785156 140.207031 109.785156 137.003906 L 109.785156 131.476562 L 105.03125 131.476562 "/>
<path fill-rule="evenodd" fill="#E5E7EB" fill-opacity="1" d="M 118.367188 140.914062 L 122.617188 140.914062 L 123.359375 134.375 L 125.617188 134.375 L 126.15625 140.914062 L 131.113281 140.914062 L 128.246094 116.910156 L 121.941406 116.910156 Z M 123.761719 130.933594 L 124.539062 121.089844 L 124.671875 121.089844 L 125.316406 130.933594 L 123.761719 130.933594 "/>
<path fill-rule="nonzero" fill="rgb(66.020203%, 31.396484%, 68.379211%)" fill-opacity="1" d="M 54.078125 53.113281 L 39.109375 40.976562 L 50.816406 55.171875 Z M 72.480469 54.292969 L 100.609375 36.617188 L 106.652344 25.53125 L 101.847656 25.53125 L 65.367188 48.523438 Z M 97.84375 25.53125 L 37.011719 25.53125 L 63.617188 47.105469 Z M 63.105469 82.414062 L 71.214844 77.472656 L 53.445312 66.257812 L 62.933594 60.292969 L 55.832031 54.535156 L 50.363281 57.980469 L 30.757812 34.203125 L 24.789062 29.363281 L 24.789062 40.730469 L 43.898438 63.625 L 24.789062 92.074219 L 24.789062 97.480469 L 25.039062 105.625 L 26.261719 104.882812 L 47.957031 72.917969 Z M 24.789062 44.0625 L 24.789062 88.246094 L 41.230469 63.761719 Z M 48.566406 75.820312 L 30.664062 102.199219 L 61.070312 83.65625 Z M 81.3125 83.847656 L 73.1875 88.730469 L 102.957031 107.390625 L 105.011719 107.390625 L 98.410156 94.636719 Z M 106.652344 87.402344 L 106.652344 45.109375 L 95.402344 65.710938 Z M 57.453125 66.261719 L 73.25 76.230469 L 78.578125 72.980469 L 64.683594 61.714844 Z M 42.140625 107.390625 L 98.9375 107.390625 L 71.132812 89.964844 Z M 96.472656 90.890625 L 90.097656 78.566406 L 83.363281 82.613281 Z M 74.234375 55.714844 L 85.296875 64.683594 L 98.515625 40.453125 Z M 74.234375 55.714844 "/>
<g clip-path="url(#clip-11)">
<path fill-rule="nonzero" fill="#E5E7EB" fill-opacity="1" d="M 290.21875 107.390625 L 291.433594 107.390625 L 291.433594 96.324219 L 290.21875 96.324219 Z M 291.453125 92.535156 C 291.304688 92.375 291.097656 92.292969 290.832031 92.292969 C 290.570312 92.292969 290.367188 92.375 290.222656 92.535156 C 290.074219 92.695312 290.003906 92.890625 290.003906 93.121094 C 290.003906 93.347656 290.074219 93.539062 290.222656 93.695312 C 290.367188 93.851562 290.570312 93.929688 290.832031 93.929688 C 291.097656 93.929688 291.304688 93.851562 291.453125 93.695312 C 291.605469 93.539062 291.679688 93.347656 291.679688 93.121094 C 291.679688 92.890625 291.605469 92.695312 291.453125 92.535156 Z M 285.625 104.511719 C 285.539062 104.695312 285.449219 104.882812 285.339844 105.054688 C 285.050781 105.5 284.667969 105.859375 284.191406 106.128906 C 283.714844 106.398438 283.125 106.53125 282.421875 106.53125 C 281.679688 106.53125 281.066406 106.328125 280.585938 105.921875 C 280.105469 105.519531 279.75 104.972656 279.519531 104.285156 C 279.285156 103.601562 279.167969 102.828125 279.167969 101.96875 L 279.167969 101.753906 C 279.167969 100.894531 279.285156 100.121094 279.519531 99.429688 C 279.75 98.734375 280.109375 98.1875 280.589844 97.785156 C 281.078125 97.382812 281.691406 97.183594 282.441406 97.183594 C 283.03125 97.183594 283.53125 97.28125 283.941406 97.480469 C 284.355469 97.675781 284.695312 97.933594 284.964844 98.25 C 285.234375 98.570312 285.445312 98.914062 285.605469 99.289062 C 285.613281 99.308594 285.617188 99.328125 285.625 99.34375 Z M 285.625 97.921875 C 285.292969 97.414062 284.902344 96.984375 284.40625 96.675781 C 283.808594 96.304688 283.078125 96.121094 282.21875 96.121094 C 281.339844 96.121094 280.578125 96.347656 279.941406 96.808594 C 279.304688 97.269531 278.8125 97.921875 278.464844 98.769531 C 278.117188 99.613281 277.941406 100.609375 277.941406 101.753906 L 277.941406 101.96875 C 277.941406 103.074219 278.113281 104.050781 278.460938 104.894531 C 278.804688 105.742188 279.292969 106.402344 279.933594 106.878906 C 280.570312 107.359375 281.324219 107.597656 282.199219 107.597656 C 283.078125 107.597656 283.820312 107.410156 284.433594 107.042969 C 284.929688 106.742188 285.320312 106.328125 285.648438 105.847656 L 285.707031 107.390625 L 286.851562 107.390625 L 286.851562 91.679688 L 285.625 91.679688 Z M 269.5625 102.03125 C 269.5625 102.835938 269.421875 103.582031 269.136719 104.269531 C 268.851562 104.960938 268.433594 105.515625 267.882812 105.933594 C 267.332031 106.351562 266.660156 106.5625 265.863281 106.5625 C 265.058594 106.5625 264.378906 106.351562 263.828125 105.933594 C 263.273438 105.515625 262.855469 104.960938 262.566406 104.269531 C 262.28125 103.582031 262.140625 102.835938 262.140625 102.03125 L 262.140625 101.695312 C 262.140625 100.894531 262.28125 100.152344 262.5625 99.464844 C 262.847656 98.773438 263.261719 98.21875 263.816406 97.792969 C 264.367188 97.367188 265.042969 97.152344 265.839844 97.152344 C 266.644531 97.152344 267.324219 97.367188 267.878906 97.792969 C 268.429688 98.21875 268.851562 98.773438 269.136719 99.464844 C 269.421875 100.152344 269.5625 100.894531 269.5625 101.695312 Z M 268.460938 96.839844 C 267.714844 96.359375 266.84375 96.121094 265.839844 96.121094 C 264.84375 96.121094 263.980469 96.359375 263.246094 96.839844 C 262.507812 97.320312 261.933594 97.980469 261.527344 98.820312 C 261.117188 99.660156 260.914062 100.617188 260.914062 101.695312 L 260.914062 102.03125 C 260.914062 103.101562 261.117188 104.054688 261.527344 104.894531 C 261.933594 105.734375 262.507812 106.394531 263.25 106.875 C 263.988281 107.355469 264.859375 107.597656 265.863281 107.597656 C 266.859375 107.597656 267.726562 107.355469 268.464844 106.875 C 269.203125 106.394531 269.777344 105.734375 270.183594 104.894531 C 270.589844 104.054688 270.792969 103.101562 270.792969 102.03125 L 270.792969 101.695312 C 270.792969 100.617188 270.589844 99.660156 270.183594 98.820312 C 269.777344 97.980469 269.203125 97.320312 268.460938 96.839844 Z M 258.964844 106.488281 C 258.796875 106.507812 258.621094 106.523438 258.4375 106.523438 C 258.183594 106.523438 257.949219 106.476562 257.726562 106.390625 C 257.503906 106.300781 257.324219 106.125 257.1875 105.863281 C 257.054688 105.601562 256.984375 105.210938 256.984375 104.699219 L 256.984375 97.328125 L 259.285156 97.328125 L 259.285156 96.324219 L 256.984375 96.324219 L 256.984375 93.480469 L 255.757812 93.480469 L 255.757812 96.324219 L 253.730469 96.324219 L 253.730469 97.328125 L 255.757812 97.328125 L 255.757812 104.691406 C 255.757812 105.425781 255.859375 106.007812 256.070312 106.433594 C 256.277344 106.859375 256.5625 107.160156 256.921875 107.335938 C 257.285156 107.507812 257.699219 107.597656 258.171875 107.597656 C 258.410156 107.597656 258.648438 107.578125 258.886719 107.550781 C 259.125 107.519531 259.320312 107.480469 259.46875 107.433594 L 259.417969 106.417969 C 259.28125 106.441406 259.128906 106.460938 258.964844 106.488281 Z M 250.285156 96.527344 C 249.757812 96.253906 249.125 96.121094 248.382812 96.121094 C 247.535156 96.121094 246.792969 96.332031 246.148438 96.761719 C 245.582031 97.140625 245.140625 97.644531 244.78125 98.242188 L 244.742188 96.324219 L 243.5625 96.324219 L 243.5625 107.390625 L 244.792969 107.390625 L 244.792969 99.804688 C 244.949219 99.359375 245.164062 98.941406 245.453125 98.546875 C 245.746094 98.144531 246.117188 97.8125 246.554688 97.554688 C 246.996094 97.300781 247.507812 97.171875 248.097656 97.171875 C 248.628906 97.171875 249.085938 97.265625 249.476562 97.449219 C 249.863281 97.632812 250.164062 97.941406 250.375 98.378906 C 250.589844 98.816406 250.695312 99.414062 250.695312 100.179688 L 250.695312 107.390625 L 251.921875 107.390625 L 251.921875 100.191406 C 251.921875 99.214844 251.777344 98.429688 251.496094 97.832031 C 251.214844 97.234375 250.808594 96.800781 250.285156 96.527344 Z M 239.953125 100.894531 L 233.355469 100.894531 C 233.421875 100.335938 233.527344 99.808594 233.722656 99.347656 C 234.015625 98.660156 234.429688 98.125 234.960938 97.734375 C 235.492188 97.347656 236.105469 97.152344 236.792969 97.152344 C 237.488281 97.152344 238.066406 97.324219 238.53125 97.667969 C 238.996094 98.011719 239.34375 98.457031 239.582031 99.003906 C 239.816406 99.550781 239.9375 100.132812 239.953125 100.75 Z M 239.1875 96.769531 C 238.53125 96.335938 237.734375 96.121094 236.792969 96.121094 C 235.953125 96.121094 235.175781 96.347656 234.453125 96.808594 C 233.734375 97.269531 233.15625 97.917969 232.714844 98.757812 C 232.277344 99.597656 232.058594 100.585938 232.058594 101.722656 L 232.058594 102.164062 C 232.058594 103.222656 232.269531 104.15625 232.695312 104.972656 C 233.121094 105.785156 233.707031 106.429688 234.453125 106.894531 C 235.203125 107.363281 236.054688 107.597656 237.019531 107.597656 C 238.011719 107.597656 238.824219 107.402344 239.457031 107.019531 C 240.085938 106.632812 240.582031 106.171875 240.945312 105.632812 L 240.167969 105.046875 C 239.765625 105.574219 239.3125 105.957031 238.808594 106.199219 C 238.304688 106.441406 237.722656 106.5625 237.066406 106.5625 C 236.324219 106.5625 235.667969 106.363281 235.09375 105.96875 C 234.523438 105.574219 234.078125 105.046875 233.757812 104.382812 C 233.441406 103.722656 233.285156 102.980469 233.285156 102.164062 L 233.285156 101.929688 L 241.179688 101.929688 L 241.179688 101.183594 C 241.179688 100.199219 241.011719 99.328125 240.675781 98.5625 C 240.335938 97.800781 239.839844 97.203125 239.1875 96.769531 Z M 227.964844 96.535156 C 227.425781 96.257812 226.773438 96.121094 226.003906 96.121094 C 225.128906 96.121094 224.375 96.3125 223.734375 96.695312 C 223.097656 97.082031 222.601562 97.589844 222.242188 98.214844 C 222.234375 98.226562 222.230469 98.238281 222.222656 98.25 C 222.0625 97.742188 221.820312 97.332031 221.488281 97.023438 C 220.84375 96.421875 219.980469 96.121094 218.902344 96.121094 C 218.003906 96.121094 217.234375 96.332031 216.601562 96.761719 C 216.0625 97.125 215.648438 97.617188 215.3125 98.1875 L 215.273438 96.324219 L 214.097656 96.324219 L 214.097656 107.390625 L 215.324219 107.390625 L 215.324219 99.808594 C 215.449219 99.363281 215.640625 98.941406 215.902344 98.546875 C 216.171875 98.144531 216.523438 97.8125 216.953125 97.554688 C 217.386719 97.300781 217.917969 97.171875 218.542969 97.171875 C 219.074219 97.171875 219.546875 97.261719 219.949219 97.4375 C 220.359375 97.617188 220.671875 97.914062 220.898438 98.332031 C 221.121094 98.753906 221.234375 99.332031 221.234375 100.066406 L 221.234375 107.390625 L 222.460938 107.390625 L 222.460938 100.128906 C 222.484375 99.820312 222.550781 99.507812 222.683594 99.183594 C 222.824219 98.832031 223.027344 98.507812 223.296875 98.207031 C 223.566406 97.90625 223.898438 97.660156 224.300781 97.46875 C 224.695312 97.277344 225.167969 97.179688 225.703125 97.171875 C 226.234375 97.171875 226.707031 97.261719 227.109375 97.433594 C 227.519531 97.609375 227.832031 97.910156 228.058594 98.34375 C 228.28125 98.777344 228.394531 99.386719 228.394531 100.167969 L 228.394531 107.390625 L 229.621094 107.390625 L 229.621094 100.179688 C 229.621094 99.21875 229.480469 98.441406 229.199219 97.84375 C 228.914062 97.246094 228.503906 96.808594 227.964844 96.535156 Z M 210.21875 92.292969 C 209.960938 92.292969 209.757812 92.375 209.609375 92.535156 C 209.464844 92.695312 209.390625 92.890625 209.390625 93.121094 C 209.390625 93.347656 209.464844 93.539062 209.609375 93.695312 C 209.757812 93.851562 209.960938 93.929688 210.21875 93.929688 C 210.484375 93.929688 210.691406 93.851562 210.84375 93.695312 C 210.992188 93.539062 211.066406 93.347656 211.066406 93.121094 C 211.066406 92.890625 210.992188 92.695312 210.84375 92.535156 C 210.691406 92.375 210.484375 92.292969 210.21875 92.292969 Z M 209.605469 107.390625 L 210.820312 107.390625 L 210.820312 96.324219 L 209.605469 96.324219 Z M 206.59375 106.488281 C 206.425781 106.507812 206.25 106.523438 206.066406 106.523438 C 205.8125 106.523438 205.578125 106.476562 205.355469 106.390625 C 205.132812 106.300781 204.953125 106.125 204.816406 105.863281 C 204.683594 105.601562 204.613281 105.210938 204.613281 104.699219 L 204.613281 97.328125 L 206.914062 97.328125 L 206.914062 96.324219 L 204.613281 96.324219 L 204.613281 93.480469 L 203.386719 93.480469 L 203.386719 96.324219 L 201.359375 96.324219 L 201.359375 97.328125 L 203.386719 97.328125 L 203.386719 104.691406 C 203.386719 105.425781 203.492188 106.007812 203.699219 106.433594 C 203.90625 106.859375 204.191406 107.160156 204.550781 107.335938 C 204.914062 107.507812 205.328125 107.597656 205.800781 107.597656 C 206.039062 107.597656 206.277344 107.578125 206.515625 107.550781 C 206.753906 107.519531 206.949219 107.480469 207.097656 107.433594 L 207.046875 106.417969 C 206.910156 106.441406 206.761719 106.460938 206.59375 106.488281 Z M 199.488281 96.121094 C 198.628906 96.121094 197.921875 96.347656 197.367188 96.804688 C 196.960938 97.136719 196.632812 97.558594 196.378906 98.066406 L 196.347656 96.324219 L 195.152344 96.324219 L 195.152344 107.390625 L 196.378906 107.390625 L 196.378906 99.832031 C 196.441406 99.605469 196.5 99.375 196.589844 99.167969 C 196.835938 98.59375 197.199219 98.136719 197.679688 97.796875 C 198.15625 97.457031 198.746094 97.285156 199.449219 97.285156 C 199.597656 97.285156 199.738281 97.292969 199.867188 97.304688 C 199.996094 97.320312 200.128906 97.335938 200.265625 97.355469 L 200.296875 96.242188 C 200.222656 96.207031 200.109375 96.179688 199.953125 96.15625 C 199.800781 96.132812 199.644531 96.121094 199.488281 96.121094 Z M 190.660156 104.277344 C 190.535156 104.578125 190.375 104.871094 190.15625 105.140625 C 189.816406 105.558594 189.386719 105.890625 188.867188 106.136719 C 188.34375 106.386719 187.742188 106.511719 187.0625 106.511719 C 186.296875 106.511719 185.691406 106.300781 185.246094 105.878906 C 184.796875 105.453125 184.574219 104.945312 184.574219 104.34375 C 184.574219 103.585938 184.929688 102.988281 185.632812 102.546875 C 186.339844 102.109375 187.316406 101.886719 188.566406 101.886719 L 190.660156 101.886719 Z M 191.890625 105.070312 L 191.890625 99.71875 C 191.890625 98.914062 191.714844 98.246094 191.371094 97.714844 C 191.027344 97.183594 190.554688 96.785156 189.949219 96.519531 C 189.347656 96.25 188.648438 96.121094 187.859375 96.121094 C 187.019531 96.121094 186.28125 96.273438 185.644531 96.585938 C 185.007812 96.894531 184.507812 97.296875 184.152344 97.792969 C 183.792969 98.285156 183.613281 98.8125 183.613281 99.371094 L 184.839844 99.382812 C 184.839844 98.964844 184.96875 98.589844 185.226562 98.25 C 185.480469 97.914062 185.832031 97.644531 186.277344 97.445312 C 186.726562 97.242188 187.234375 97.140625 187.808594 97.140625 C 188.730469 97.140625 189.433594 97.371094 189.925781 97.828125 C 190.417969 98.285156 190.660156 98.910156 190.660156 99.699219 L 190.660156 100.949219 L 188.402344 100.949219 C 186.839844 100.949219 185.605469 101.257812 184.703125 101.882812 C 183.800781 102.507812 183.347656 103.363281 183.347656 104.453125 C 183.347656 105.054688 183.496094 105.59375 183.792969 106.066406 C 184.089844 106.539062 184.503906 106.914062 185.042969 107.1875 C 185.578125 107.460938 186.207031 107.597656 186.929688 107.597656 C 187.570312 107.597656 188.144531 107.5 188.652344 107.304688 C 189.160156 107.109375 189.601562 106.859375 189.976562 106.546875 C 190.257812 106.316406 190.484375 106.066406 190.6875 105.808594 C 190.699219 106.023438 190.699219 106.234375 190.730469 106.464844 C 190.773438 106.835938 190.835938 107.144531 190.917969 107.390625 L 192.226562 107.390625 L 192.226562 107.269531 C 192.117188 107.003906 192.035156 106.664062 191.976562 106.253906 C 191.917969 105.847656 191.890625 105.449219 191.890625 105.070312 Z M 179.984375 101.96875 C 179.984375 102.828125 179.867188 103.605469 179.628906 104.296875 C 179.394531 104.988281 179.039062 105.539062 178.554688 105.949219 C 178.074219 106.359375 177.464844 106.5625 176.71875 106.5625 C 176.019531 106.5625 175.425781 106.429688 174.949219 106.164062 C 174.472656 105.898438 174.09375 105.546875 173.808594 105.105469 C 173.703125 104.9375 173.613281 104.757812 173.53125 104.578125 L 173.53125 99.316406 C 173.53125 99.308594 173.535156 99.300781 173.539062 99.289062 C 173.695312 98.914062 173.910156 98.570312 174.179688 98.25 C 174.445312 97.933594 174.789062 97.675781 175.203125 97.480469 C 175.613281 97.28125 176.113281 97.183594 176.699219 97.183594 C 177.449219 97.183594 178.066406 97.382812 178.550781 97.785156 C 179.035156 98.1875 179.394531 98.734375 179.628906 99.429688 C 179.867188 100.121094 179.984375 100.894531 179.984375 101.753906 Z M 179.273438 96.808594 C 178.640625 96.347656 177.875 96.121094 176.976562 96.121094 C 176.109375 96.121094 175.371094 96.304688 174.761719 96.675781 C 174.253906 96.984375 173.847656 97.421875 173.507812 97.933594 L 173.449219 96.324219 L 172.300781 96.324219 L 172.300781 111.644531 L 173.53125 111.644531 L 173.53125 105.941406 C 173.855469 106.390625 174.242188 106.777344 174.730469 107.058594 C 175.355469 107.417969 176.109375 107.597656 176.996094 107.597656 C 177.890625 107.597656 178.652344 107.359375 179.28125 106.878906 C 179.914062 106.402344 180.394531 105.742188 180.726562 104.894531 C 181.054688 104.050781 181.21875 103.074219 181.21875 101.96875 L 181.21875 101.753906 C 181.21875 100.609375 181.054688 99.613281 180.71875 98.769531 C 180.386719 97.921875 179.902344 97.269531 179.273438 96.808594 Z M 168.375 92.292969 C 168.113281 92.292969 167.910156 92.375 167.765625 92.535156 C 167.617188 92.695312 167.546875 92.890625 167.546875 93.121094 C 167.546875 93.347656 167.617188 93.539062 167.765625 93.695312 C 167.910156 93.851562 168.113281 93.929688 168.375 93.929688 C 168.640625 93.929688 168.847656 93.851562 168.996094 93.695312 C 169.148438 93.539062 169.222656 93.347656 169.222656 93.121094 C 169.222656 92.890625 169.148438 92.695312 168.996094 92.535156 C 168.847656 92.375 168.640625 92.292969 168.375 92.292969 Z M 167.757812 107.390625 L 168.976562 107.390625 L 168.976562 96.324219 L 167.757812 96.324219 Z M 163.441406 100.628906 C 163.441406 101.753906 163.230469 102.746094 162.808594 103.601562 C 162.386719 104.457031 161.785156 105.125 161.007812 105.605469 C 160.230469 106.085938 159.3125 106.328125 158.246094 106.328125 L 155.433594 106.328125 L 155.433594 93.570312 L 158.339844 93.570312 C 159.363281 93.570312 160.257812 93.804688 161.023438 94.273438 C 161.792969 94.738281 162.386719 95.394531 162.808594 96.242188 C 163.230469 97.085938 163.441406 98.085938 163.441406 99.238281 Z M 161.632812 93.335938 C 160.679688 92.777344 159.582031 92.5 158.339844 92.5 L 154.175781 92.5 L 154.175781 107.390625 L 158.246094 107.390625 C 159.523438 107.390625 160.644531 107.109375 161.613281 106.554688 C 162.582031 105.992188 163.335938 105.207031 163.878906 104.195312 C 164.417969 103.183594 164.691406 101.992188 164.691406 100.628906 L 164.691406 99.257812 C 164.691406 97.894531 164.417969 96.707031 163.878906 95.695312 C 163.335938 94.683594 162.585938 93.894531 161.632812 93.335938 "/>
</g>
<g clip-path="url(#clip-12)">
<path fill-rule="nonzero" fill="#E5E7EB" fill-opacity="1" d="M 245.1875 137.785156 C 245.121094 137.921875 245.050781 138.0625 244.949219 138.203125 C 244.691406 138.5625 244.339844 138.867188 243.898438 139.113281 C 243.453125 139.359375 242.941406 139.480469 242.363281 139.480469 C 241.675781 139.480469 241.152344 139.296875 240.792969 138.929688 C 240.433594 138.558594 240.253906 138.109375 240.253906 137.578125 C 240.253906 136.898438 240.546875 136.386719 241.136719 136.042969 C 241.722656 135.703125 242.554688 135.53125 243.632812 135.53125 L 245.1875 135.53125 Z M 247.195312 139.675781 C 247.132812 139.261719 247.097656 138.867188 247.097656 138.5 L 247.097656 133.34375 C 247.097656 132.519531 246.921875 131.832031 246.570312 131.28125 C 246.222656 130.734375 245.734375 130.324219 245.113281 130.050781 C 244.492188 129.777344 243.78125 129.640625 242.976562 129.640625 C 242.082031 129.640625 241.308594 129.804688 240.648438 130.128906 C 239.992188 130.453125 239.480469 130.863281 239.121094 131.363281 C 238.757812 131.867188 238.578125 132.382812 238.578125 132.914062 L 240.492188 132.914062 C 240.492188 132.601562 240.589844 132.3125 240.789062 132.046875 C 240.984375 131.777344 241.261719 131.5625 241.621094 131.402344 C 241.980469 131.238281 242.394531 131.15625 242.863281 131.15625 C 243.628906 131.15625 244.207031 131.351562 244.597656 131.742188 C 244.988281 132.136719 245.1875 132.660156 245.1875 133.324219 L 245.1875 134.203125 L 243.324219 134.203125 C 241.804688 134.203125 240.59375 134.511719 239.691406 135.128906 C 238.792969 135.746094 238.34375 136.652344 238.34375 137.84375 C 238.34375 138.449219 238.496094 139.003906 238.808594 139.5 C 239.117188 140 239.554688 140.394531 240.117188 140.683594 C 240.679688 140.972656 241.335938 141.117188 242.085938 141.117188 C 242.6875 141.117188 243.226562 141.011719 243.707031 140.804688 C 244.1875 140.597656 244.605469 140.335938 244.957031 140.019531 C 245.0625 139.921875 245.148438 139.824219 245.242188 139.722656 C 245.253906 139.832031 245.25 139.925781 245.269531 140.039062 C 245.320312 140.402344 245.398438 140.695312 245.492188 140.914062 L 247.488281 140.914062 L 247.488281 140.75 C 247.355469 140.449219 247.261719 140.089844 247.195312 139.675781 Z M 233.984375 140.914062 L 235.894531 140.914062 L 235.894531 129.84375 L 233.984375 129.84375 Z M 234.957031 125.816406 C 234.585938 125.816406 234.308594 125.921875 234.121094 126.132812 C 233.933594 126.34375 233.839844 126.601562 233.839844 126.898438 C 233.839844 127.191406 233.933594 127.445312 234.121094 127.652344 C 234.308594 127.859375 234.585938 127.964844 234.957031 127.964844 C 235.324219 127.964844 235.605469 127.859375 235.796875 127.652344 C 235.992188 127.445312 236.089844 127.191406 236.089844 126.898438 C 236.089844 126.601562 235.992188 126.34375 235.796875 126.132812 C 235.605469 125.921875 235.324219 125.816406 234.957031 125.816406 Z M 229.175781 137.855469 C 229.140625 137.925781 229.113281 138 229.074219 138.070312 C 228.828125 138.503906 228.503906 138.859375 228.101562 139.125 C 227.699219 139.390625 227.1875 139.523438 226.558594 139.523438 C 225.875 139.523438 225.320312 139.339844 224.890625 138.972656 C 224.460938 138.609375 224.144531 138.125 223.945312 137.515625 C 223.742188 136.910156 223.644531 136.238281 223.644531 135.5 L 223.644531 135.289062 C 223.644531 134.550781 223.742188 133.875 223.945312 133.257812 C 224.144531 132.640625 224.460938 132.148438 224.894531 131.777344 C 225.328125 131.410156 225.890625 131.226562 226.578125 131.226562 C 227.050781 131.226562 227.460938 131.308594 227.8125 131.472656 C 228.164062 131.636719 228.460938 131.855469 228.707031 132.132812 C 228.894531 132.34375 229.042969 132.582031 229.175781 132.839844 Z M 229.261719 131.054688 C 229.261719 131.054688 229.261719 131.054688 229.261719 131.050781 C 228.898438 130.59375 228.457031 130.246094 227.933594 130.003906 C 227.414062 129.761719 226.804688 129.640625 226.109375 129.640625 C 225.207031 129.640625 224.429688 129.875 223.777344 130.347656 C 223.121094 130.816406 222.617188 131.476562 222.261719 132.324219 C 221.90625 133.175781 221.730469 134.164062 221.730469 135.289062 L 221.730469 135.5 C 221.730469 136.578125 221.910156 137.542969 222.265625 138.386719 C 222.625 139.234375 223.128906 139.898438 223.78125 140.386719 C 224.433594 140.875 225.199219 141.117188 226.085938 141.117188 C 227.023438 141.117188 227.800781 140.90625 228.429688 140.480469 C 228.707031 140.289062 228.953125 140.0625 229.175781 139.804688 L 229.175781 140.769531 C 229.175781 141.738281 228.914062 142.476562 228.382812 142.984375 C 227.855469 143.492188 227.144531 143.746094 226.25 143.746094 C 225.753906 143.746094 225.25 143.636719 224.742188 143.414062 C 224.234375 143.191406 223.75 142.800781 223.285156 142.242188 L 222.292969 143.359375 C 222.625 143.835938 223.039062 144.214844 223.535156 144.496094 C 224.03125 144.78125 224.535156 144.980469 225.050781 145.101562 C 225.566406 145.222656 226.011719 145.28125 226.394531 145.28125 C 227.3125 145.28125 228.128906 145.101562 228.832031 144.742188 C 229.539062 144.386719 230.09375 143.863281 230.492188 143.175781 C 230.890625 142.484375 231.089844 141.652344 231.089844 140.679688 L 231.089844 129.84375 L 229.351562 129.84375 Z M 217.976562 135.5 C 217.976562 136.230469 217.863281 136.90625 217.628906 137.527344 C 217.398438 138.148438 217.050781 138.644531 216.59375 139.019531 C 216.132812 139.398438 215.554688 139.582031 214.859375 139.582031 C 214.15625 139.582031 213.574219 139.398438 213.113281 139.019531 C 212.652344 138.644531 212.308594 138.148438 212.074219 137.527344 C 211.84375 136.90625 211.726562 136.230469 211.726562 135.5 L 211.726562 135.265625 C 211.726562 134.539062 211.839844 133.863281 212.070312 133.242188 C 212.296875 132.621094 212.644531 132.121094 213.109375 131.742188 C 213.574219 131.363281 214.148438 131.175781 214.839844 131.175781 C 215.539062 131.175781 216.125 131.363281 216.585938 131.742188 C 217.050781 132.121094 217.398438 132.621094 217.628906 133.242188 C 217.863281 133.863281 217.976562 134.539062 217.976562 135.265625 Z M 217.539062 130.382812 C 216.78125 129.886719 215.882812 129.640625 214.839844 129.640625 C 213.808594 129.640625 212.917969 129.886719 212.167969 130.382812 C 211.417969 130.878906 210.839844 131.546875 210.429688 132.394531 C 210.019531 133.238281 209.816406 134.195312 209.816406 135.265625 L 209.816406 135.5 C 209.816406 136.566406 210.019531 137.523438 210.429688 138.371094 C 210.839844 139.21875 211.417969 139.890625 212.171875 140.382812 C 212.925781 140.871094 213.820312 141.117188 214.859375 141.117188 C 215.894531 141.117188 216.789062 140.871094 217.542969 140.382812 C 218.296875 139.890625 218.875 139.21875 219.285156 138.371094 C 219.6875 137.523438 219.890625 136.566406 219.890625 135.5 L 219.890625 135.265625 C 219.890625 134.195312 219.6875 133.238281 219.285156 132.394531 C 218.875 131.546875 218.292969 130.878906 217.539062 130.382812 Z M 205.496094 140.914062 L 207.40625 140.914062 L 207.40625 125.203125 L 205.496094 125.203125 Z M 201.183594 135.5 C 201.183594 136.230469 201.066406 136.90625 200.835938 137.527344 C 200.605469 138.148438 200.257812 138.644531 199.796875 139.019531 C 199.339844 139.398438 198.761719 139.582031 198.066406 139.582031 C 197.363281 139.582031 196.78125 139.398438 196.320312 139.019531 C 195.859375 138.644531 195.515625 138.148438 195.28125 137.527344 C 195.050781 136.90625 194.933594 136.230469 194.933594 135.5 L 194.933594 135.265625 C 194.933594 134.539062 195.046875 133.863281 195.277344 133.242188 C 195.503906 132.621094 195.851562 132.121094 196.316406 131.742188 C 196.777344 131.363281 197.355469 131.175781 198.042969 131.175781 C 198.746094 131.175781 199.328125 131.363281 199.792969 131.742188 C 200.257812 132.121094 200.605469 132.621094 200.835938 133.242188 C 201.066406 133.863281 201.183594 134.539062 201.183594 135.265625 Z M 200.742188 130.382812 C 199.988281 129.886719 199.085938 129.640625 198.042969 129.640625 C 197.015625 129.640625 196.125 129.886719 195.375 130.382812 C 194.625 130.878906 194.042969 131.546875 193.636719 132.394531 C 193.226562 133.238281 193.023438 134.195312 193.023438 135.265625 L 193.023438 135.5 C 193.023438 136.566406 193.226562 137.523438 193.636719 138.371094 C 194.042969 139.21875 194.625 139.890625 195.378906 140.382812 C 196.132812 140.871094 197.027344 141.117188 198.066406 141.117188 C 199.101562 141.117188 199.996094 140.871094 200.75 140.382812 C 201.503906 139.890625 202.082031 139.21875 202.488281 138.371094 C 202.894531 137.523438 203.097656 136.566406 203.097656 135.5 L 203.097656 135.265625 C 203.097656 134.195312 202.894531 133.238281 202.488281 132.394531 C 202.082031 131.546875 201.5 130.878906 200.742188 130.382812 Z M 184.207031 133.277344 C 184.386719 132.667969 184.699219 132.164062 185.136719 131.769531 C 185.578125 131.375 186.183594 131.175781 186.953125 131.175781 C 187.457031 131.175781 187.898438 131.285156 188.277344 131.507812 C 188.65625 131.730469 188.957031 132.027344 189.179688 132.402344 C 189.398438 132.777344 189.527344 133.195312 189.5625 133.652344 L 191.371094 133.652344 C 191.339844 132.886719 191.136719 132.203125 190.765625 131.601562 C 190.390625 130.996094 189.882812 130.519531 189.230469 130.167969 C 188.578125 129.816406 187.820312 129.640625 186.953125 129.640625 C 185.847656 129.640625 184.933594 129.894531 184.203125 130.402344 C 183.472656 130.910156 182.925781 131.582031 182.566406 132.417969 C 182.203125 133.253906 182.023438 134.167969 182.023438 135.164062 L 182.023438 135.59375 C 182.023438 136.582031 182.203125 137.496094 182.558594 138.335938 C 182.917969 139.175781 183.460938 139.847656 184.191406 140.355469 C 184.921875 140.863281 185.84375 141.117188 186.953125 141.117188 C 187.738281 141.117188 188.457031 140.945312 189.113281 140.601562 C 189.765625 140.257812 190.300781 139.804688 190.707031 139.238281 C 191.117188 138.679688 191.339844 138.070312 191.371094 137.414062 L 189.5625 137.414062 C 189.527344 137.832031 189.386719 138.203125 189.144531 138.53125 C 188.898438 138.859375 188.582031 139.113281 188.203125 139.300781 C 187.820312 139.488281 187.402344 139.582031 186.953125 139.582031 C 186.175781 139.582031 185.566406 139.386719 185.128906 138.996094 C 184.6875 138.601562 184.378906 138.101562 184.203125 137.488281 C 184.027344 136.871094 183.9375 136.242188 183.9375 135.59375 L 183.9375 135.164062 C 183.9375 134.515625 184.027344 133.886719 184.207031 133.277344 Z M 177.742188 140.914062 L 179.65625 140.914062 L 179.65625 129.84375 L 177.742188 129.84375 Z M 178.714844 125.816406 C 178.347656 125.816406 178.070312 125.921875 177.882812 126.132812 C 177.695312 126.34375 177.601562 126.601562 177.601562 126.898438 C 177.601562 127.191406 177.695312 127.445312 177.882812 127.652344 C 178.070312 127.859375 178.347656 127.964844 178.714844 127.964844 C 179.082031 127.964844 179.363281 127.859375 179.558594 127.652344 C 179.753906 127.445312 179.851562 127.191406 179.851562 126.898438 C 179.851562 126.601562 179.753906 126.34375 179.558594 126.132812 C 179.363281 125.921875 179.082031 125.816406 178.714844 125.816406 Z M 173.578125 135.265625 C 172.992188 134.980469 172.246094 134.734375 171.339844 134.53125 C 170.640625 134.375 170.113281 134.214844 169.746094 134.058594 C 169.382812 133.902344 169.132812 133.722656 168.996094 133.523438 C 168.859375 133.324219 168.792969 133.085938 168.792969 132.8125 C 168.792969 132.539062 168.863281 132.277344 169.011719 132.03125 C 169.15625 131.78125 169.394531 131.578125 169.71875 131.417969 C 170.042969 131.257812 170.460938 131.175781 170.980469 131.175781 C 171.722656 131.175781 172.296875 131.378906 172.695312 131.789062 C 173.09375 132.199219 173.292969 132.632812 173.292969 133.089844 L 175.207031 133.089844 C 175.207031 132.453125 175.039062 131.875 174.703125 131.355469 C 174.371094 130.832031 173.886719 130.417969 173.257812 130.105469 C 172.625 129.796875 171.867188 129.640625 170.980469 129.640625 C 170.15625 129.640625 169.433594 129.789062 168.816406 130.085938 C 168.199219 130.382812 167.722656 130.773438 167.386719 131.261719 C 167.046875 131.75 166.878906 132.285156 166.878906 132.875 C 166.878906 133.480469 167.039062 133.988281 167.363281 134.398438 C 167.6875 134.808594 168.148438 135.144531 168.746094 135.40625 C 169.339844 135.667969 170.050781 135.882812 170.867188 136.054688 C 171.597656 136.203125 172.144531 136.375 172.503906 136.570312 C 172.867188 136.765625 173.105469 136.980469 173.226562 137.214844 C 173.34375 137.453125 173.40625 137.703125 173.40625 137.976562 C 173.40625 138.285156 173.3125 138.558594 173.132812 138.800781 C 172.953125 139.042969 172.6875 139.234375 172.335938 139.375 C 171.984375 139.515625 171.550781 139.582031 171.03125 139.582031 C 170.640625 139.582031 170.253906 139.519531 169.859375 139.390625 C 169.46875 139.261719 169.136719 139.042969 168.867188 138.738281 C 168.597656 138.4375 168.445312 138.027344 168.414062 137.507812 L 166.5 137.507812 C 166.5 138.121094 166.675781 138.703125 167.023438 139.25 C 167.371094 139.800781 167.882812 140.25 168.558594 140.597656 C 169.230469 140.945312 170.058594 141.117188 171.03125 141.117188 C 171.898438 141.117188 172.652344 140.980469 173.292969 140.703125 C 173.933594 140.425781 174.429688 140.042969 174.785156 139.546875 C 175.140625 139.054688 175.316406 138.484375 175.316406 137.84375 C 175.316406 137.242188 175.175781 136.738281 174.886719 136.320312 C 174.601562 135.90625 174.164062 135.554688 173.578125 135.265625 Z M 162.589844 132.074219 C 162.367188 132.511719 162.019531 132.855469 161.546875 133.101562 C 161.070312 133.351562 160.449219 133.476562 159.679688 133.476562 L 156.160156 133.476562 L 156.160156 127.625 L 159.679688 127.625 C 160.449219 127.625 161.070312 127.765625 161.546875 128.046875 C 162.019531 128.324219 162.367188 128.691406 162.589844 129.140625 C 162.8125 129.589844 162.921875 130.070312 162.921875 130.582031 C 162.921875 131.140625 162.8125 131.636719 162.589844 132.074219 Z M 162.535156 126.601562 C 161.753906 126.214844 160.804688 126.019531 159.679688 126.019531 L 154.175781 126.019531 L 154.175781 140.914062 L 156.160156 140.914062 L 156.160156 135.074219 L 159.679688 135.074219 C 160.804688 135.074219 161.753906 134.898438 162.535156 134.546875 C 163.3125 134.195312 163.898438 133.679688 164.304688 133.007812 C 164.707031 132.332031 164.90625 131.515625 164.90625 130.5625 C 164.90625 129.675781 164.707031 128.890625 164.304688 128.210938 C 163.898438 127.527344 163.3125 126.992188 162.535156 126.601562 "/>
</g>
</svg>
