<svg width="440" height="103" viewBox="0 0 440 103" fill="none" xmlns="http://www.w3.org/2000/svg">
<path d="M126.227 18.3103C134.245 18.3103 140.994 21.2212 146.475 27.0431C146.475 27.0526 146.475 27.0526 146.475 27.0621C151.409 32.3815 153.876 38.5826 153.876 45.6561C153.876 53.5261 150.93 60.2014 145.071 65.6725C145.071 65.682 145.071 65.6915 145.037 65.701C142.604 67.8913 139.932 69.5981 136.985 70.8307L153.431 90.2212C153.91 90.7806 154.013 91.5771 153.705 92.2504C153.397 92.9236 152.711 93.3503 151.992 93.3503H142.673C142.125 93.3503 141.61 93.1132 141.268 92.6865L124.549 73.0021H113.448V91.4539C113.448 92.5064 112.591 93.3503 111.564 93.3503H104.505C103.443 93.3503 102.587 92.5064 102.587 91.4539V20.2162C102.587 19.1637 103.443 18.3103 104.505 18.3103H126.227ZM113.448 29.243V62.0694H119.341H127.084C132.394 61.8134 136.643 59.5946 139.76 55.4036C139.76 55.3941 139.76 55.3941 139.76 55.3846C141.953 52.54 143.015 49.2972 143.015 45.6561C143.015 40.498 140.994 36.2785 136.951 32.9978C133.799 30.4946 130.202 29.243 126.227 29.243H113.448Z" fill="white"/>
<path d="M162.099 18.3103H169.157C170.219 18.3103 171.04 19.1637 171.04 20.2162V91.4539C171.04 92.5064 170.219 93.3503 169.157 93.3503H162.099C161.037 93.3503 160.214 92.5064 160.214 91.4539V20.2162C160.214 19.1637 161.037 18.3103 162.099 18.3103Z" fill="white"/>
<path d="M205.645 18.3103H206.056H206.091C209.106 18.3862 212.017 18.8887 214.826 19.8369C222.056 22.3117 227.434 26.9957 230.963 33.8985C230.963 33.8985 230.963 33.8985 230.963 33.908C233.053 38.0421 234.116 42.4039 234.116 46.9836V91.4539C234.116 92.5064 233.259 93.3503 232.231 93.3503H225.139C224.111 93.3503 223.255 92.5064 223.255 91.4539V87.4904C218.424 91.4159 212.771 93.4356 206.295 93.5589C206.261 93.5589 206.261 93.5589 206.261 93.5589H204.445C204.411 93.5589 204.377 93.5589 204.343 93.5494C196.326 93.1132 189.679 89.8135 184.403 83.6313C184.403 83.6313 184.403 83.6218 184.403 83.6123C179.504 77.743 177.174 71.0678 177.482 63.596V63.5865C177.825 55.3752 181.113 48.5766 187.315 43.2004C192.591 38.6206 198.655 36.2691 205.508 36.1269C205.508 36.1174 205.508 36.1174 205.542 36.1174C206.09 36.1174 206.569 36.1553 207.049 36.2312C212.908 36.5251 218.081 38.3457 222.501 41.7023C221.542 38.45 219.658 35.6528 216.882 33.2823C215.169 31.9359 213.285 30.8928 211.263 30.1437C206.055 28.3896 201.122 29.006 196.463 31.9928C194.681 33.1591 193.174 34.5813 191.872 36.2407C191.255 37.0561 190.09 37.2173 189.233 36.5915L183.581 32.3151C182.758 31.6893 182.587 30.4946 183.203 29.6601C187.966 23.2598 194.304 19.5524 202.15 18.5284C202.184 18.5284 202.184 18.5284 202.184 18.5284C203.418 18.3861 204.548 18.3103 205.645 18.3103ZM225.002 67.3508L223.255 65.5398C223.426 59.8981 221.473 55.2329 217.327 51.5634C214.21 48.8041 210.613 47.3345 206.467 47.1449C206.364 47.1449 206.261 47.1354 206.193 47.1164C205.987 47.069 205.747 47.0501 205.542 47.0501C200.163 47.1165 195.744 49.2498 192.352 53.4692C189.851 56.5983 188.514 60.1256 188.308 64.0606C188.069 69.636 189.988 74.2916 194.065 78.037C197.183 80.8531 200.78 82.3891 204.925 82.6357C210.407 82.8727 214.93 80.9763 218.596 76.9465C221.371 73.7606 222.946 70.0627 223.255 65.8337V65.6062L225.002 67.3508Z" fill="white"/>
<path d="M244.154 18.3103H251.212C252.274 18.3103 253.096 19.1637 253.096 20.2162V23.5064C257.824 20.1024 263.238 18.3672 269.37 18.3103C269.405 18.3103 269.405 18.3103 269.405 18.3103C277.353 18.3103 284.034 21.1169 289.447 26.7208C289.447 26.7302 289.447 26.7303 289.447 26.7397C294.209 31.7178 296.539 37.5586 296.539 44.2339V91.4539C296.539 92.5064 295.717 93.3503 294.655 93.3503H287.597C286.535 93.3503 285.713 92.5064 285.713 91.4539V44.2339C285.713 39.4929 283.725 35.6717 279.785 32.7323C279.785 32.7228 279.785 32.7228 279.785 32.7228C276.736 30.3997 273.276 29.243 269.405 29.243C264.06 29.243 259.777 31.1773 256.488 35.0744C254.227 37.7673 253.096 40.8204 253.096 44.2339V91.4539C253.096 92.5064 252.274 93.3503 251.212 93.3503H244.154C243.092 93.3503 242.269 92.5064 242.269 91.4539V20.2162C242.269 19.1637 243.092 18.3103 244.154 18.3103Z" fill="white"/>
<path d="M306.783 18.3103H313.876C314.904 18.3103 315.759 19.1637 315.759 20.2162V23.5064C320.488 20.1024 325.901 18.3672 332.034 18.3103C332.034 18.3103 332.034 18.3103 332.068 18.3103C339.982 18.3103 346.698 21.1169 352.111 26.7208C352.111 26.7302 352.111 26.7303 352.111 26.7397C356.839 31.7178 359.203 37.5586 359.203 44.2339V91.4539C359.203 92.5064 358.347 93.3503 357.319 93.3503H350.261C349.199 93.3503 348.342 92.5064 348.342 91.4539V44.2339C348.342 39.4929 346.389 35.6717 342.449 32.7323C342.449 32.7228 342.449 32.7228 342.415 32.7228C339.4 30.3997 335.939 29.243 332.068 29.243C326.723 29.243 322.407 31.1773 319.152 35.0744C316.891 37.7673 315.759 40.8204 315.759 44.2339V91.4539C315.759 92.5064 314.904 93.3503 313.876 93.3503H306.783C305.756 93.3503 304.899 92.5064 304.899 91.4539V20.2162C304.899 19.1637 305.756 18.3103 306.783 18.3103Z" fill="white"/>
<path d="M439.751 58.6465V58.7792C439.751 60.5144 437.867 60.685 437.867 60.685H376.882C377.978 67.0284 381.027 72.2814 385.995 76.4534C385.995 76.4534 386.029 76.4534 386.029 76.4629C387.571 77.7904 389.25 78.8903 390.998 79.7816C390.998 79.7816 390.998 79.7816 391.032 79.7816C397.781 83.2615 404.736 83.6693 411.828 81.0238C417.104 78.9947 421.319 75.6381 424.471 70.954C425.053 70.0816 426.218 69.854 427.075 70.4324L432.933 74.4054C433.824 74.9933 434.029 76.169 433.447 77.0413C428.136 85.0441 420.771 90.2023 411.417 92.4874C402.612 94.6303 394.183 93.6632 386.063 89.586C386.063 89.586 386.063 89.586 386.063 89.5765C377.772 85.3002 371.845 78.7671 368.316 69.9868C368.282 69.9773 368.282 69.9678 368.282 69.9583C364.89 61.2539 364.685 52.4736 367.666 43.6175V43.6081C370.783 34.6003 376.471 27.7827 384.693 23.1366C390.381 19.9127 396.376 18.3103 402.68 18.3103H403.4H403.434C405.764 18.3862 408.025 18.6327 410.218 19.0594C410.218 19.0594 410.252 19.0594 410.252 19.0689C419.708 21.0696 427.212 26.0381 432.83 33.9745C438.072 41.3799 440.368 49.6007 439.751 58.6465ZM402.578 29.243C395.383 29.243 389.182 31.8694 384.008 37.1224C381.267 40.0334 379.212 43.3805 377.91 47.1922C377.636 48.0456 377.396 48.899 377.19 49.7619H428.308C426.903 43.6081 423.682 38.5732 418.612 34.6476C415.425 32.2487 411.897 30.6368 408.06 29.8119C406.244 29.4326 404.428 29.243 402.578 29.243Z" fill="white"/>
<path fill-rule="evenodd" clip-rule="evenodd" d="M45.0536 37.8169C54.6423 47.5428 61.1885 64.1387 58.696 77.0057C57.5617 82.8594 54.3777 90.3718 49.2189 95.6587C45.3497 99.6202 40.4284 102.372 34.5388 102.768C27.6171 103.236 19.8622 99.9155 15.4437 94.5855C9.73861 87.6996 8.55853 77.4919 8.52349 71.4106C8.48415 64.7041 11.5988 57.6965 14.3938 51.559C16.7719 46.3378 22.3053 36.0133 22.2803 36.0003C22.2803 36.0003 28.4682 25.9892 28.4904 26.0007C30.4014 23.0707 32.3875 20.1903 34.4401 17.3769C34.8156 16.8619 35.1968 16.3396 35.5851 15.8131C40.1052 9.68429 45.5729 2.99006 53.9199 0.759366C66.6032 -2.63026 78.4891 5.78906 81.7833 15.932C87.0786 32.2347 88.8015 48.8789 90.6546 65.6383C91.1703 70.2992 92.5899 83.0826 93.3802 89.9829C93.5068 91.0921 93.6177 91.8124 93.7056 92.5615L82.0994 92.3526C81.4607 86.9361 79.6391 72.3685 79.0391 66.9405C77.274 50.9814 75.7177 35.1166 70.6748 19.591C69.0499 14.5887 63.1731 10.4644 56.9173 12.1361C50.5921 13.8273 47.1727 19.8013 43.86 24.3441C41.9683 26.9378 40.1359 29.5913 38.3715 32.2902C38.438 32.337 32.3138 42.3589 32.2544 42.3157C29.6104 46.9694 27.1844 51.7067 25.0174 56.4655C22.9068 61.1012 20.1812 66.2764 20.2105 71.3414C20.2348 75.4664 20.4108 81.2748 24.2807 85.9421C26.2461 88.3191 30.6753 91.2362 33.7542 91.0273C37.479 90.7752 40.2976 88.4199 42.426 85.6108C44.9835 82.2255 46.5777 78.089 47.2242 74.7519C48.8864 66.1741 44.7232 55.4723 38.6748 48.2242L45.0536 37.8169ZM14.4639 32.7915C13.5134 32.5027 12.5522 32.2499 11.5967 32.046C9.10923 31.5145 6.67613 31.1709 4.84737 31.9654C3.99343 32.3356 -1.10879 21.7331 0.219332 21.1569C3.96268 19.5305 8.929 19.4441 14.0198 20.531C16.2834 21.0136 18.5749 21.7129 20.7534 22.516L14.4639 32.7915Z" fill="white"/>
</svg>
