<svg xmlns="http://www.w3.org/2000/svg" viewBox="0 0 444 444"><rect fill="#ffffff" width="444" height="444"/><path fill="#111111" d="M24,24h12v12h-12zM36,24h12v12h-12zM48,24h12v12h-12zM60,24h12v12h-12zM72,24h12v12h-12zM84,24h12v12h-12zM96,24h12v12h-12zM156,24h12v12h-12zM168,24h12v12h-12zM204,24h12v12h-12zM228,24h12v12h-12zM240,24h12v12h-12zM252,24h12v12h-12zM264,24h12v12h-12zM276,24h12v12h-12zM288,24h12v12h-12zM312,24h12v12h-12zM336,24h12v12h-12zM348,24h12v12h-12zM360,24h12v12h-12zM372,24h12v12h-12zM384,24h12v12h-12zM396,24h12v12h-12zM408,24h12v12h-12zM24,36h12v12h-12zM96,36h12v12h-12zM180,36h12v12h-12zM240,36h12v12h-12zM252,36h12v12h-12zM264,36h12v12h-12zM288,36h12v12h-12zM312,36h12v12h-12zM336,36h12v12h-12zM408,36h12v12h-12zM24,48h12v12h-12zM48,48h12v12h-12zM60,48h12v12h-12zM72,48h12v12h-12zM96,48h12v12h-12zM120,48h12v12h-12zM132,48h12v12h-12zM144,48h12v12h-12zM180,48h12v12h-12zM192,48h12v12h-12zM204,48h12v12h-12zM216,48h12v12h-12zM228,48h12v12h-12zM240,48h12v12h-12zM252,48h12v12h-12zM264,48h12v12h-12zM276,48h12v12h-12zM300,48h12v12h-12zM312,48h12v12h-12zM336,48h12v12h-12zM360,48h12v12h-12zM372,48h12v12h-12zM384,48h12v12h-12zM408,48h12v12h-12zM24,60h12v12h-12zM48,60h12v12h-12zM60,60h12v12h-12zM72,60h12v12h-12zM96,60h12v12h-12zM120,60h12v12h-12zM144,60h12v12h-12zM180,60h12v12h-12zM192,60h12v12h-12zM216,60h12v12h-12zM276,60h12v12h-12zM288,60h12v12h-12zM300,60h12v12h-12zM336,60h12v12h-12zM360,60h12v12h-12zM372,60h12v12h-12zM384,60h12v12h-12zM408,60h12v12h-12zM24,72h12v12h-12zM48,72h12v12h-12zM60,72h12v12h-12zM72,72h12v12h-12zM96,72h12v12h-12zM132,72h12v12h-12zM156,72h12v12h-12zM168,72h12v12h-12zM204,72h12v12h-12zM216,72h12v12h-12zM276,72h12v12h-12zM300,72h12v12h-12zM312,72h12v12h-12zM336,72h12v12h-12zM360,72h12v12h-12zM372,72h12v12h-12zM384,72h12v12h-12zM408,72h12v12h-12zM24,84h12v12h-12zM96,84h12v12h-12zM132,84h12v12h-12zM144,84h12v12h-12zM156,84h12v12h-12zM180,84h12v12h-12zM192,84h12v12h-12zM204,84h12v12h-12zM216,84h12v12h-12zM252,84h12v12h-12zM288,84h12v12h-12zM300,84h12v12h-12zM336,84h12v12h-12zM408,84h12v12h-12zM24,96h12v12h-12zM36,96h12v12h-12zM48,96h12v12h-12zM60,96h12v12h-12zM72,96h12v12h-12zM84,96h12v12h-12zM96,96h12v12h-12zM120,96h12v12h-12zM144,96h12v12h-12zM168,96h12v12h-12zM192,96h12v12h-12zM216,96h12v12h-12zM240,96h12v12h-12zM264,96h12v12h-12zM288,96h12v12h-12zM312,96h12v12h-12zM336,96h12v12h-12zM348,96h12v12h-12zM360,96h12v12h-12zM372,96h12v12h-12zM384,96h12v12h-12zM396,96h12v12h-12zM408,96h12v12h-12zM132,108h12v12h-12zM156,108h12v12h-12zM168,108h12v12h-12zM204,108h12v12h-12zM252,108h12v12h-12zM264,108h12v12h-12zM288,108h12v12h-12zM312,108h12v12h-12zM60,120h12v12h-12zM72,120h12v12h-12zM96,120h12v12h-12zM108,120h12v12h-12zM132,120h12v12h-12zM144,120h12v12h-12zM192,120h12v12h-12zM204,120h12v12h-12zM216,120h12v12h-12zM252,120h12v12h-12zM264,120h12v12h-12zM312,120h12v12h-12zM372,120h12v12h-12zM384,120h12v12h-12zM24,132h12v12h-12zM36,132h12v12h-12zM48,132h12v12h-12zM72,132h12v12h-12zM84,132h12v12h-12zM120,132h12v12h-12zM132,132h12v12h-12zM156,132h12v12h-12zM180,132h12v12h-12zM216,132h12v12h-12zM264,132h12v12h-12zM276,132h12v12h-12zM300,132h12v12h-12zM324,132h12v12h-12zM348,132h12v12h-12zM360,132h12v12h-12zM396,132h12v12h-12zM48,144h12v12h-12zM72,144h12v12h-12zM84,144h12v12h-12zM96,144h12v12h-12zM108,144h12v12h-12zM132,144h12v12h-12zM156,144h12v12h-12zM168,144h12v12h-12zM180,144h12v12h-12zM192,144h12v12h-12zM240,144h12v12h-12zM252,144h12v12h-12zM264,144h12v12h-12zM288,144h12v12h-12zM300,144h12v12h-12zM312,144h12v12h-12zM336,144h12v12h-12zM348,144h12v12h-12zM372,144h12v12h-12zM384,144h12v12h-12zM396,144h12v12h-12zM408,144h12v12h-12zM36,156h12v12h-12zM72,156h12v12h-12zM120,156h12v12h-12zM132,156h12v12h-12zM180,156h12v12h-12zM192,156h12v12h-12zM204,156h12v12h-12zM228,156h12v12h-12zM240,156h12v12h-12zM252,156h12v12h-12zM264,156h12v12h-12zM276,156h12v12h-12zM288,156h12v12h-12zM300,156h12v12h-12zM324,156h12v12h-12zM348,156h12v12h-12zM360,156h12v12h-12zM384,156h12v12h-12zM396,156h12v12h-12zM24,168h12v12h-12zM84,168h12v12h-12zM96,168h12v12h-12zM108,168h12v12h-12zM132,168h12v12h-12zM144,168h12v12h-12zM180,168h12v12h-12zM204,168h12v12h-12zM252,168h12v12h-12zM276,168h12v12h-12zM300,168h12v12h-12zM312,168h12v12h-12zM336,168h12v12h-12zM348,168h12v12h-12zM372,168h12v12h-12zM396,168h12v12h-12zM408,168h12v12h-12zM48,180h12v12h-12zM72,180h12v12h-12zM84,180h12v12h-12zM108,180h12v12h-12zM132,180h12v12h-12zM156,180h12v12h-12zM168,180h12v12h-12zM204,180h12v12h-12zM228,180h12v12h-12zM240,180h12v12h-12zM252,180h12v12h-12zM264,180h12v12h-12zM276,180h12v12h-12zM300,180h12v12h-12zM324,180h12v12h-12zM372,180h12v12h-12zM396,180h12v12h-12zM24,192h12v12h-12zM36,192h12v12h-12zM48,192h12v12h-12zM84,192h12v12h-12zM96,192h12v12h-12zM132,192h12v12h-12zM144,192h12v12h-12zM180,192h12v12h-12zM192,192h12v12h-12zM204,192h12v12h-12zM312,192h12v12h-12zM348,192h12v12h-12zM360,192h12v12h-12zM36,204h12v12h-12zM48,204h12v12h-12zM72,204h12v12h-12zM108,204h12v12h-12zM120,204h12v12h-12zM132,204h12v12h-12zM156,204h12v12h-12zM204,204h12v12h-12zM216,204h12v12h-12zM252,204h12v12h-12zM300,204h12v12h-12zM336,204h12v12h-12zM348,204h12v12h-12zM360,204h12v12h-12zM372,204h12v12h-12zM384,204h12v12h-12zM48,216h12v12h-12zM72,216h12v12h-12zM84,216h12v12h-12zM96,216h12v12h-12zM120,216h12v12h-12zM144,216h12v12h-12zM168,216h12v12h-12zM180,216h12v12h-12zM192,216h12v12h-12zM204,216h12v12h-12zM216,216h12v12h-12zM228,216h12v12h-12zM240,216h12v12h-12zM252,216h12v12h-12zM324,216h12v12h-12zM336,216h12v12h-12zM360,216h12v12h-12zM372,216h12v12h-12zM396,216h12v12h-12zM24,228h12v12h-12zM48,228h12v12h-12zM60,228h12v12h-12zM84,228h12v12h-12zM120,228h12v12h-12zM168,228h12v12h-12zM180,228h12v12h-12zM216,228h12v12h-12zM228,228h12v12h-12zM240,228h12v12h-12zM264,228h12v12h-12zM276,228h12v12h-12zM288,228h12v12h-12zM312,228h12v12h-12zM336,228h12v12h-12zM348,228h12v12h-12zM360,228h12v12h-12zM372,228h12v12h-12zM408,228h12v12h-12zM24,240h12v12h-12zM36,240h12v12h-12zM60,240h12v12h-12zM84,240h12v12h-12zM96,240h12v12h-12zM120,240h12v12h-12zM132,240h12v12h-12zM144,240h12v12h-12zM168,240h12v12h-12zM216,240h12v12h-12zM228,240h12v12h-12zM240,240h12v12h-12zM252,240h12v12h-12zM264,240h12v12h-12zM300,240h12v12h-12zM348,240h12v12h-12zM360,240h12v12h-12zM372,240h12v12h-12zM384,240h12v12h-12zM396,240h12v12h-12zM408,240h12v12h-12zM36,252h12v12h-12zM48,252h12v12h-12zM60,252h12v12h-12zM72,252h12v12h-12zM144,252h12v12h-12zM156,252h12v12h-12zM168,252h12v12h-12zM180,252h12v12h-12zM192,252h12v12h-12zM240,252h12v12h-12zM264,252h12v12h-12zM300,252h12v12h-12zM312,252h12v12h-12zM348,252h12v12h-12zM372,252h12v12h-12zM384,252h12v12h-12zM408,252h12v12h-12zM60,264h12v12h-12zM84,264h12v12h-12zM96,264h12v12h-12zM132,264h12v12h-12zM144,264h12v12h-12zM156,264h12v12h-12zM192,264h12v12h-12zM216,264h12v12h-12zM252,264h12v12h-12zM312,264h12v12h-12zM324,264h12v12h-12zM348,264h12v12h-12zM372,264h12v12h-12zM396,264h12v12h-12zM24,276h12v12h-12zM60,276h12v12h-12zM84,276h12v12h-12zM108,276h12v12h-12zM132,276h12v12h-12zM144,276h12v12h-12zM156,276h12v12h-12zM216,276h12v12h-12zM228,276h12v12h-12zM240,276h12v12h-12zM264,276h12v12h-12zM336,276h12v12h-12zM348,276h12v12h-12zM360,276h12v12h-12zM384,276h12v12h-12zM24,288h12v12h-12zM72,288h12v12h-12zM96,288h12v12h-12zM120,288h12v12h-12zM144,288h12v12h-12zM156,288h12v12h-12zM180,288h12v12h-12zM216,288h12v12h-12zM240,288h12v12h-12zM252,288h12v12h-12zM276,288h12v12h-12zM288,288h12v12h-12zM312,288h12v12h-12zM336,288h12v12h-12zM372,288h12v12h-12zM396,288h12v12h-12zM408,288h12v12h-12zM24,300h12v12h-12zM48,300h12v12h-12zM60,300h12v12h-12zM72,300h12v12h-12zM84,300h12v12h-12zM120,300h12v12h-12zM132,300h12v12h-12zM168,300h12v12h-12zM180,300h12v12h-12zM192,300h12v12h-12zM204,300h12v12h-12zM216,300h12v12h-12zM228,300h12v12h-12zM288,300h12v12h-12zM384,300h12v12h-12zM396,300h12v12h-12zM408,300h12v12h-12zM24,312h12v12h-12zM36,312h12v12h-12zM48,312h12v12h-12zM72,312h12v12h-12zM96,312h12v12h-12zM108,312h12v12h-12zM132,312h12v12h-12zM156,312h12v12h-12zM168,312h12v12h-12zM216,312h12v12h-12zM228,312h12v12h-12zM264,312h12v12h-12zM312,312h12v12h-12zM324,312h12v12h-12zM336,312h12v12h-12zM348,312h12v12h-12zM360,312h12v12h-12zM372,312h12v12h-12zM408,312h12v12h-12zM120,324h12v12h-12zM132,324h12v12h-12zM144,324h12v12h-12zM168,324h12v12h-12zM312,324h12v12h-12zM360,324h12v12h-12zM384,324h12v12h-12zM396,324h12v12h-12zM24,336h12v12h-12zM36,336h12v12h-12zM48,336h12v12h-12zM60,336h12v12h-12zM72,336h12v12h-12zM84,336h12v12h-12zM96,336h12v12h-12zM120,336h12v12h-12zM168,336h12v12h-12zM216,336h12v12h-12zM240,336h12v12h-12zM252,336h12v12h-12zM276,336h12v12h-12zM288,336h12v12h-12zM300,336h12v12h-12zM312,336h12v12h-12zM336,336h12v12h-12zM360,336h12v12h-12zM372,336h12v12h-12zM384,336h12v12h-12zM24,348h12v12h-12zM96,348h12v12h-12zM132,348h12v12h-12zM144,348h12v12h-12zM180,348h12v12h-12zM192,348h12v12h-12zM204,348h12v12h-12zM216,348h12v12h-12zM240,348h12v12h-12zM252,348h12v12h-12zM264,348h12v12h-12zM300,348h12v12h-12zM312,348h12v12h-12zM360,348h12v12h-12zM372,348h12v12h-12zM384,348h12v12h-12zM396,348h12v12h-12zM24,360h12v12h-12zM48,360h12v12h-12zM60,360h12v12h-12zM72,360h12v12h-12zM96,360h12v12h-12zM120,360h12v12h-12zM132,360h12v12h-12zM144,360h12v12h-12zM156,360h12v12h-12zM204,360h12v12h-12zM216,360h12v12h-12zM228,360h12v12h-12zM240,360h12v12h-12zM264,360h12v12h-12zM276,360h12v12h-12zM300,360h12v12h-12zM312,360h12v12h-12zM324,360h12v12h-12zM336,360h12v12h-12zM348,360h12v12h-12zM360,360h12v12h-12zM396,360h12v12h-12zM24,372h12v12h-12zM48,372h12v12h-12zM60,372h12v12h-12zM72,372h12v12h-12zM96,372h12v12h-12zM120,372h12v12h-12zM144,372h12v12h-12zM168,372h12v12h-12zM180,372h12v12h-12zM192,372h12v12h-12zM216,372h12v12h-12zM252,372h12v12h-12zM276,372h12v12h-12zM312,372h12v12h-12zM324,372h12v12h-12zM348,372h12v12h-12zM372,372h12v12h-12zM396,372h12v12h-12zM24,384h12v12h-12zM48,384h12v12h-12zM60,384h12v12h-12zM72,384h12v12h-12zM96,384h12v12h-12zM252,384h12v12h-12zM264,384h12v12h-12zM276,384h12v12h-12zM288,384h12v12h-12zM300,384h12v12h-12zM312,384h12v12h-12zM360,384h12v12h-12zM384,384h12v12h-12zM396,384h12v12h-12zM408,384h12v12h-12zM24,396h12v12h-12zM96,396h12v12h-12zM132,396h12v12h-12zM144,396h12v12h-12zM156,396h12v12h-12zM180,396h12v12h-12zM192,396h12v12h-12zM204,396h12v12h-12zM216,396h12v12h-12zM228,396h12v12h-12zM252,396h12v12h-12zM372,396h12v12h-12zM384,396h12v12h-12zM396,396h12v12h-12zM408,396h12v12h-12zM24,408h12v12h-12zM36,408h12v12h-12zM48,408h12v12h-12zM60,408h12v12h-12zM72,408h12v12h-12zM84,408h12v12h-12zM96,408h12v12h-12zM144,408h12v12h-12zM168,408h12v12h-12zM228,408h12v12h-12zM276,408h12v12h-12zM288,408h12v12h-12zM300,408h12v12h-12zM312,408h12v12h-12zM324,408h12v12h-12zM336,408h12v12h-12zM360,408h12v12h-12zM372,408h12v12h-12z"/></svg>