<svg width="691" height="844" viewBox="0 0 691 844" fill="none" xmlns="http://www.w3.org/2000/svg">
<rect width="691" height="843.02" fill="white"/>
<g clip-path="url(#clip0_2101_1451)">
<rect width="691" height="691" fill="#4F46E5"/>
<rect x="490.941" y="203.157" width="73.7067" height="73.7067" transform="rotate(30 490.941 203.157)" fill="#A3E635"/>
<rect x="562.751" y="244.617" width="73.7067" height="73.7067" transform="rotate(30 562.751 244.617)" fill="#A3E635"/>
<rect x="634.562" y="286.077" width="73.7067" height="73.7067" transform="rotate(30 634.562 286.077)" fill="#A3E635"/>
<rect x="449.481" y="274.968" width="73.7067" height="73.7067" transform="rotate(30 449.481 274.968)" fill="#A3E635"/>
<rect x="664.913" y="399.348" width="73.7067" height="73.7067" transform="rotate(30 664.913 399.348)" fill="#A3E635"/>
<rect x="408.021" y="346.778" width="73.7067" height="73.7067" transform="rotate(30 408.021 346.778)" fill="#A3E635"/>
<rect x="695.264" y="512.618" width="73.7067" height="73.7067" transform="rotate(30 695.264 512.618)" fill="#A3E635"/>
<rect x="366.561" y="418.589" width="73.7067" height="73.7067" transform="rotate(30 366.561 418.589)" fill="#A3E635"/>
<rect x="653.804" y="584.429" width="73.7067" height="73.7067" transform="rotate(30 653.804 584.429)" fill="#A3E635"/>
<rect x="325.101" y="490.4" width="73.7067" height="73.7067" transform="rotate(30 325.101 490.4)" fill="#A3E635"/>
<rect x="540.533" y="614.78" width="73.7067" height="73.7067" transform="rotate(30 540.533 614.78)" fill="#A3E635"/>
<rect x="283.641" y="562.211" width="73.7067" height="73.7067" transform="rotate(30 283.641 562.211)" fill="#A3E635"/>
<rect x="355.452" y="603.671" width="73.7067" height="73.7067" transform="rotate(30 355.452 603.671)" fill="#A3E635"/>
<rect x="427.262" y="645.131" width="73.7067" height="73.7067" transform="rotate(30 427.262 645.131)" fill="#A3E635"/>
<rect x="-13.819" y="-50.6733" width="73.7067" height="73.7067" fill="#A3E635"/>
<rect x="152.021" y="-50.6733" width="73.7067" height="73.7067" fill="#A3E635"/>
<rect x="317.861" y="-50.6733" width="73.7067" height="73.7067" fill="#A3E635"/>
<rect x="-13.819" y="32.2467" width="73.7067" height="73.7067" fill="#A3E635"/>
<rect x="152.021" y="32.2467" width="73.7067" height="73.7067" fill="#A3E635"/>
<rect x="317.861" y="32.2467" width="73.7067" height="73.7067" fill="#A3E635"/>
<rect x="-13.819" y="115.167" width="73.7067" height="73.7067" fill="#A3E635"/>
<rect x="152.021" y="115.167" width="73.7067" height="73.7067" fill="#A3E635"/>
<rect x="317.861" y="115.167" width="73.7067" height="73.7067" fill="#A3E635"/>
<rect x="-13.819" y="198.087" width="73.7067" height="73.7067" fill="#A3E635"/>
<rect x="152.021" y="198.087" width="73.7067" height="73.7067" fill="#A3E635"/>
<rect x="317.861" y="198.087" width="73.7067" height="73.7067" fill="#A3E635"/>
<rect x="69.101" y="281.007" width="73.7067" height="73.7067" fill="#A3E635"/>
<rect x="234.941" y="281.007" width="73.7067" height="73.7067" fill="#A3E635"/>
</g>
<path d="M33.8567 798.82L13.7255 728.464H29.9748L41.6207 777.349H42.2047L55.053 728.464H68.9662L81.7801 777.452H82.3985L94.0444 728.464H110.294L90.1624 798.82H75.6652L62.2672 752.82H61.7176L48.354 798.82H33.8567ZM118.255 798.82V728.464H133.13V757.493H163.327V728.464H178.168V798.82H163.327V769.757H133.13V798.82H118.255ZM202.559 798.82H186.619L210.907 728.464H230.076L254.33 798.82H238.39L220.767 744.541H220.217L202.559 798.82ZM201.563 771.165H239.215V782.777H201.563V771.165ZM251.522 740.728V728.464H309.305V740.728H287.765V798.82H273.062V740.728H251.522ZM316.141 740.728V728.464H373.924V740.728H352.384V798.82H337.681V740.728H316.141ZM386.97 798.82H371.03L395.318 728.464H414.487L438.741 798.82H422.801L405.177 744.541H404.628L386.97 798.82ZM385.974 771.165H423.625V782.777H385.974V771.165ZM471.325 798.82H449.614V728.464H472.287C479.112 728.464 484.952 729.872 489.808 732.689C494.663 735.483 498.385 739.503 500.973 744.747C503.56 749.969 504.854 756.221 504.854 763.504C504.854 770.833 503.549 777.143 500.938 782.433C498.327 787.701 494.525 791.755 489.533 794.595C484.54 797.412 478.471 798.82 471.325 798.82ZM458.133 791.262H470.776C476.593 791.262 481.414 790.14 485.239 787.896C489.063 785.651 491.915 782.456 493.793 778.311C495.671 774.166 496.61 769.23 496.61 763.504C496.61 757.825 495.682 752.935 493.827 748.835C491.972 744.713 489.201 741.552 485.513 739.354C481.826 737.132 477.234 736.022 471.738 736.022H458.133V791.262ZM518.725 798.82H509.793L535.627 728.464H544.421L570.255 798.82H561.323L540.299 739.594H539.749L518.725 798.82ZM522.023 771.337H558.025V778.895H522.023V771.337ZM569.147 736.022V728.464H621.915V736.022H599.791V798.82H591.271V736.022H569.147ZM629.73 798.82H620.798L646.632 728.464H655.427L681.261 798.82H672.329L651.304 739.594H650.755L629.73 798.82ZM633.028 771.337H669.031V778.895H633.028V771.337Z" fill="black"/>
<defs>
<clipPath id="clip0_2101_1451">
<rect width="691" height="691" fill="white"/>
</clipPath>
</defs>
</svg>
